<svg xmlns="http://www.w3.org/2000/svg" xmlns:xlink="http://www.w3.org/1999/xlink" width="234.494" height="233.178" viewBox="0 0 234.494 233.178">
  <defs>
    <linearGradient id="linear-gradient" x1="0.37" y1="0.825" x2="0.685" y2="0.038" gradientUnits="objectBoundingBox">
      <stop offset="0" stop-color="#1c75bc"/>
      <stop offset="0.279" stop-color="#1f77bc"/>
      <stop offset="0.541" stop-color="#2b7dbc"/>
      <stop offset="0.796" stop-color="#3e88bc"/>
      <stop offset="1" stop-color="#5394bc"/>
    </linearGradient>
  </defs>
  <g id="Group_120" data-name="Group 120" transform="translate(-346.409 -142.594)">
    <g id="Group_12" data-name="Group 12" opacity="0.4">
      <g id="Group_11" data-name="Group 11">
        <path id="Path_74" data-name="Path 74" d="M459.241,171.1v1.071l4.5,2.594V173.7Z" fill="#fff"/>
        <path id="Path_75" data-name="Path 75" d="M459.241,173.06v1.07l4.5,2.594v-1.07Z" fill="#fff"/>
        <path id="Path_76" data-name="Path 76" d="M459.241,175.015v1.07l4.5,2.594v-1.071Z" fill="#fff"/>
        <path id="Path_77" data-name="Path 77" d="M493.178,197.616v-1.07l-27.753-16.008v1.07Z" fill="#fff"/>
        <path id="Path_78" data-name="Path 78" d="M459.241,176.971v1.07l4.5,2.594v-1.07Z" fill="#fff"/>
        <path id="Path_79" data-name="Path 79" d="M459.241,178.926V180l4.5,2.594v-1.07Z" fill="#fff"/>
        <path id="Path_80" data-name="Path 80" d="M493.178,199.571V198.5l-27.753-16.008v1.07Z" fill="#fff"/>
        <path id="Path_81" data-name="Path 81" d="M459.241,184.792v1.07l4.5,2.594v-1.071Z" fill="#fff"/>
        <path id="Path_82" data-name="Path 82" d="M459.241,186.748v1.07l4.5,2.594v-1.071Z" fill="#fff"/>
        <path id="Path_83" data-name="Path 83" d="M459.241,194.57v1.071l4.5,2.594v-1.07Z" fill="#fff"/>
        <path id="Path_84" data-name="Path 84" d="M459.241,196.525v1.07l4.5,2.594v-1.071Z" fill="#fff"/>
        <g id="Group_5" data-name="Group 5">
          <path id="Path_85" data-name="Path 85" d="M482.934,210.191l-17.509-10.1v1.071l17.509,10.1Z" fill="#fff"/>
          <path id="Path_86" data-name="Path 86" d="M483.857,210.723v1.07l9.321,5.377V216.1Z" fill="#fff"/>
        </g>
        <g id="Group_6" data-name="Group 6">
          <path id="Path_87" data-name="Path 87" d="M474.222,203.21l-8.8-5.074v1.07l8.8,5.074Z" fill="#fff"/>
          <path id="Path_88" data-name="Path 88" d="M475.145,203.743v1.07l18.033,10.4v-1.071Z" fill="#fff"/>
        </g>
        <path id="Path_89" data-name="Path 89" d="M490.806,206.91v1.07l2.372,1.368v-1.07Z" fill="#fff"/>
        <path id="Path_90" data-name="Path 90" d="M477.9,197.508l-12.47-7.193v1.07l12.47,7.193Z" fill="#fff"/>
        <path id="Path_91" data-name="Path 91" d="M472.786,178.917l-7.361-4.245v1.07l7.361,4.246Z" fill="#fff"/>
        <g id="Group_7" data-name="Group 7">
          <path id="Path_92" data-name="Path 92" d="M484.851,185.876l-11.142-6.427v1.07l11.142,6.427Z" fill="#fff"/>
        </g>
        <path id="Path_93" data-name="Path 93" d="M478.357,184.085l-7.845-4.525v1.07l7.845,4.525Z" fill="#fff"/>
        <g id="Group_8" data-name="Group 8">
          <path id="Path_94" data-name="Path 94" d="M486.588,188.833l-7.308-4.215v1.07l7.308,4.215Z" fill="#fff"/>
          <path id="Path_95" data-name="Path 95" d="M487.511,189.365v1.071l5.667,3.269v-1.071Z" fill="#fff"/>
        </g>
        <path id="Path_96" data-name="Path 96" d="M466.875,179.418v1.07l5.911,3.409v-1.071Z" fill="#fff"/>
        <path id="Path_97" data-name="Path 97" d="M490.866,193.256l-17.157-9.9v1.07l17.157,9.9Z" fill="#fff"/>
        <path id="Path_98" data-name="Path 98" d="M481.043,193.457l-11.212-6.467v1.07l11.212,6.467Z" fill="#fff"/>
        <path id="Path_99" data-name="Path 99" d="M490.866,199.122l-8.9-5.134v1.07l8.9,5.133Z" fill="#fff"/>
        <g id="Group_9" data-name="Group 9">
          <path id="Path_100" data-name="Path 100" d="M489.883,204.422l-11.065-6.382v1.07l11.065,6.382Z" fill="#fff"/>
        </g>
        <path id="Path_101" data-name="Path 101" d="M483.857,202.9v1.07l6.026,3.476v-1.071Z" fill="#fff"/>
        <path id="Path_102" data-name="Path 102" d="M467.6,193.522l-2.17-1.252v1.071l2.17,1.252Z" fill="#fff"/>
        <g id="Group_10" data-name="Group 10">
          <path id="Path_103" data-name="Path 103" d="M471.66,195.867v1.07l11.273,6.5v-1.07Z" fill="#fff"/>
          <path id="Path_104" data-name="Path 104" d="M470.738,195.334l-2.219-1.28v1.07l2.219,1.28Z" fill="#fff"/>
        </g>
        <path id="Path_105" data-name="Path 105" d="M480.848,203.122l-12.33-7.112v1.071l12.33,7.112Z" fill="#fff"/>
      </g>
    </g>
    <g id="Group_13" data-name="Group 13" opacity="0.4">
      <path id="Path_106" data-name="Path 106" d="M483.218,153.393l-18.647-10.8v.949l18.647,10.8Z" fill="#fff"/>
      <path id="Path_107" data-name="Path 107" d="M464.571,145.406l28.608,16.547V161l-28.608-16.547Z" fill="#fff"/>
      <path id="Path_108" data-name="Path 108" d="M484.465,154.1v.949l8.713,5.046v-.949Z" fill="#fff"/>
      <path id="Path_109" data-name="Path 109" d="M483.218,157.027l-18.647-10.8v.949l18.647,10.8Z" fill="#fff"/>
      <path id="Path_110" data-name="Path 110" d="M464.571,149.04l28.608,16.547v-.948l-28.608-16.547Z" fill="#fff"/>
      <path id="Path_111" data-name="Path 111" d="M484.465,158.678l8.713,5.046v-.949l-8.713-5.046Z" fill="#fff"/>
      <path id="Path_112" data-name="Path 112" d="M483.218,163.027l-18.647-10.8v.949l18.647,10.8Z" fill="#fff"/>
      <path id="Path_113" data-name="Path 113" d="M464.571,155.04l28.608,16.546v-.948l-28.608-16.547Z" fill="#fff"/>
      <path id="Path_114" data-name="Path 114" d="M484.465,164.678l8.713,5.045v-.948l-8.713-5.046Z" fill="#fff"/>
      <path id="Path_115" data-name="Path 115" d="M483.218,166.661l-18.647-10.8v.948l18.647,10.8Z" fill="#fff"/>
      <path id="Path_116" data-name="Path 116" d="M464.571,158.673l28.608,16.547v-.948l-28.608-16.547Z" fill="#fff"/>
      <path id="Path_117" data-name="Path 117" d="M484.465,168.312l8.713,5.046v-.949l-8.713-5.046Z" fill="#fff"/>
      <path id="Path_118" data-name="Path 118" d="M483.218,172.661l-18.647-10.8v.948l18.647,10.8Z" fill="#fff"/>
      <path id="Path_119" data-name="Path 119" d="M464.571,164.673l28.608,16.547v-.948l-28.608-16.547Z" fill="#fff"/>
      <path id="Path_120" data-name="Path 120" d="M484.465,174.312l8.713,5.046v-.948l-8.713-5.046Z" fill="#fff"/>
      <path id="Path_121" data-name="Path 121" d="M483.218,176.295l-18.647-10.8v.949l18.647,10.8Z" fill="#fff"/>
      <path id="Path_122" data-name="Path 122" d="M464.571,168.307l28.608,16.546v-.948l-28.608-16.547Z" fill="#fff"/>
      <path id="Path_123" data-name="Path 123" d="M484.465,177.946l8.713,5.046v-.948L484.465,177Z" fill="#fff"/>
    </g>
    <path id="Path_124" data-name="Path 124" d="M432.91,166.974l-13.93-8.037a1.019,1.019,0,0,0-1.529.883v16.675a2.272,2.272,0,0,0,1.137,1.968l13.928,8.053a1.045,1.045,0,0,0,1.568-.905v-16.6A2.345,2.345,0,0,0,432.91,166.974Z" fill="#fff" opacity="0.2"/>
    <g id="Group_17" data-name="Group 17">
      <g id="Group_15" data-name="Group 15">
        <g id="Group_14" data-name="Group 14">
          <path id="Path_125" data-name="Path 125" d="M426.729,181.065l-18.263-10.54a1.726,1.726,0,0,0-1.828.073h0l-4.01,2.315,1.865,2.528.694.8v18.094a3.017,3.017,0,0,0,1.508,2.612l13.669,7.9.14.76,2.789,3.908,4.29-2.522.022-.012.029-.017v0a1.371,1.371,0,0,0,.654-1.175V183.76A3.11,3.11,0,0,0,426.729,181.065Z" fill="#f4767a"/>
          <path id="Path_126" data-name="Path 126" d="M422.46,183.574l-18.479-10.663a1.353,1.353,0,0,0-2.028,1.172V196.2a3.02,3.02,0,0,0,1.507,2.612L421.937,209.5a1.387,1.387,0,0,0,2.081-1.2V186.269A3.11,3.11,0,0,0,422.46,183.574Z" fill="#ed5561"/>
        </g>
      </g>
      <g id="Group_16" data-name="Group 16">
        <path id="Path_127" data-name="Path 127" d="M423.319,209.5l-.027.016,0,0C423.3,209.507,423.31,209.505,423.319,209.5Z" fill="#bbcee1"/>
        <path id="Path_128" data-name="Path 128" d="M424.018,208.3V186.269a3.094,3.094,0,0,0-.211-1.061l4.286-2.469a3.083,3.083,0,0,1,.194,1.021v22.027a1.371,1.371,0,0,1-.654,1.175v0l-.029.017-.022.012-4.253,2.5A1.373,1.373,0,0,0,424.018,208.3Z" fill="#d8395a"/>
      </g>
    </g>
    <g id="Group_18" data-name="Group 18">
      <path id="Path_129" data-name="Path 129" d="M406.346,183.5l-2.247-1.3-.023,8.085,1.492.861.008-2.873.64.37a2.5,2.5,0,0,0,2.023.476c.474-.192.712-.717.714-1.589a4.043,4.043,0,0,0-.66-2.274A5.651,5.651,0,0,0,406.346,183.5Zm.755,3.936a1.39,1.39,0,0,1-1.031-.283l-.49-.283.007-2.4.68.392a2.565,2.565,0,0,1,.9.806,1.947,1.947,0,0,1,.283,1.058C407.446,187.123,407.331,187.357,407.1,187.435Z" fill="#fff"/>
      <path id="Path_130" data-name="Path 130" d="M414.163,191.186l-2.786-1.609.009-3.169-1.491-.861-.023,8.085,1.492.861.01-3.489,2.786,1.609-.01,3.49,1.488.859.023-8.085-1.488-.859Z" fill="#fff"/>
      <path id="Path_131" data-name="Path 131" d="M421.234,192.729a5.648,5.648,0,0,0-1.947-1.758l-2.246-1.3-.023,8.084,1.491.861.008-2.872.641.369a2.482,2.482,0,0,0,2.019.474c.477-.189.715-.715.717-1.586A4.043,4.043,0,0,0,421.234,192.729Zm-1.192,2.177a1.389,1.389,0,0,1-1.031-.282l-.49-.283.007-2.4.68.392a2.547,2.547,0,0,1,.9.806,1.943,1.943,0,0,1,.283,1.057C420.387,194.6,420.272,194.829,420.042,194.906Z" fill="#fff"/>
    </g>
    <g id="Group_26" data-name="Group 26" opacity="0.4">
      <g id="Group_25" data-name="Group 25">
        <path id="Path_132" data-name="Path 132" d="M383.6,181.887v1.071l4.5,2.594V184.48Z" fill="#fff"/>
        <path id="Path_133" data-name="Path 133" d="M383.6,183.842v1.071l4.5,2.594v-1.07Z" fill="#fff"/>
        <path id="Path_134" data-name="Path 134" d="M383.6,185.8v1.07l4.5,2.594v-1.071Z" fill="#fff"/>
        <path id="Path_135" data-name="Path 135" d="M417.537,208.4v-1.07L389.785,191.32v1.07Z" fill="#fff"/>
        <path id="Path_136" data-name="Path 136" d="M383.6,187.753v1.07l4.5,2.594v-1.07Z" fill="#fff"/>
        <path id="Path_137" data-name="Path 137" d="M383.6,189.709v1.07l4.5,2.594V192.3Z" fill="#fff"/>
        <path id="Path_138" data-name="Path 138" d="M417.537,210.354v-1.071l-27.753-16.008v1.07Z" fill="#fff"/>
        <path id="Path_139" data-name="Path 139" d="M383.6,195.575v1.07l4.5,2.594v-1.07Z" fill="#fff"/>
        <path id="Path_140" data-name="Path 140" d="M383.6,197.531v1.07l4.5,2.594v-1.07Z" fill="#fff"/>
        <path id="Path_141" data-name="Path 141" d="M383.6,205.352v1.07l4.5,2.594v-1.07Z" fill="#fff"/>
        <path id="Path_142" data-name="Path 142" d="M383.6,207.308v1.07l4.5,2.594V209.9Z" fill="#fff"/>
        <g id="Group_19" data-name="Group 19">
          <path id="Path_143" data-name="Path 143" d="M407.293,220.974l-17.509-10.1v1.07l17.509,10.1Z" fill="#fff"/>
          <path id="Path_144" data-name="Path 144" d="M408.216,221.506v1.071l9.321,5.377v-1.07Z" fill="#fff"/>
        </g>
        <g id="Group_20" data-name="Group 20">
          <path id="Path_145" data-name="Path 145" d="M398.581,213.993l-8.8-5.074v1.071l8.8,5.074Z" fill="#fff"/>
          <path id="Path_146" data-name="Path 146" d="M399.5,214.525v1.07L417.537,226v-1.071Z" fill="#fff"/>
        </g>
        <path id="Path_147" data-name="Path 147" d="M415.165,217.692v1.071l2.372,1.368v-1.07Z" fill="#fff"/>
        <path id="Path_148" data-name="Path 148" d="M402.255,208.29l-12.47-7.193v1.07l12.47,7.193Z" fill="#fff"/>
        <path id="Path_149" data-name="Path 149" d="M397.145,189.7l-7.36-4.246v1.071l7.36,4.246Z" fill="#fff"/>
        <g id="Group_21" data-name="Group 21">
          <path id="Path_150" data-name="Path 150" d="M409.21,196.658l-11.142-6.427V191.3l11.142,6.427Z" fill="#fff"/>
        </g>
        <path id="Path_151" data-name="Path 151" d="M402.716,194.868l-7.845-4.525v1.071l7.845,4.525Z" fill="#fff"/>
        <g id="Group_22" data-name="Group 22">
          <path id="Path_152" data-name="Path 152" d="M410.947,199.616l-7.308-4.215v1.07l7.308,4.215Z" fill="#fff"/>
          <path id="Path_153" data-name="Path 153" d="M411.87,200.148v1.07l5.667,3.269v-1.071Z" fill="#fff"/>
        </g>
        <path id="Path_154" data-name="Path 154" d="M391.234,190.2v1.07l5.911,3.409v-1.07Z" fill="#fff"/>
        <path id="Path_155" data-name="Path 155" d="M415.225,204.039l-17.157-9.9v1.071l17.157,9.9Z" fill="#fff"/>
        <path id="Path_156" data-name="Path 156" d="M405.4,204.239l-11.212-6.467v1.07L405.4,205.31Z" fill="#fff"/>
        <path id="Path_157" data-name="Path 157" d="M415.225,209.9l-8.9-5.133v1.07l8.9,5.134Z" fill="#fff"/>
        <g id="Group_23" data-name="Group 23">
          <path id="Path_158" data-name="Path 158" d="M414.242,215.2l-11.065-6.382v1.071l11.065,6.382Z" fill="#fff"/>
        </g>
        <path id="Path_159" data-name="Path 159" d="M408.216,213.684v1.07l6.026,3.476v-1.07Z" fill="#fff"/>
        <path id="Path_160" data-name="Path 160" d="M391.955,204.3l-2.17-1.252v1.071l2.17,1.252Z" fill="#fff"/>
        <g id="Group_24" data-name="Group 24">
          <path id="Path_161" data-name="Path 161" d="M396.02,206.649v1.07l11.273,6.5v-1.07Z" fill="#fff"/>
          <path id="Path_162" data-name="Path 162" d="M395.1,206.117l-2.219-1.28v1.07l2.219,1.28Z" fill="#fff"/>
        </g>
        <path id="Path_163" data-name="Path 163" d="M405.207,213.9l-12.33-7.112v1.07l12.33,7.112Z" fill="#fff"/>
      </g>
    </g>
    <path id="Path_164" data-name="Path 164" d="M517.7,195.8l-13.93-8.038a1.02,1.02,0,0,0-1.529.883v16.675a2.274,2.274,0,0,0,1.137,1.969l13.928,8.052a1.045,1.045,0,0,0,1.568-.9v-16.6A2.344,2.344,0,0,0,517.7,195.8Z" fill="#fff" opacity="0.2"/>
    <path id="Path_165" data-name="Path 165" d="M536.72,163.576l-13.93-8.038a1.02,1.02,0,0,0-1.529.883V173.1a2.275,2.275,0,0,0,1.136,1.969l13.928,8.052a1.046,1.046,0,0,0,1.569-.9v-16.6A2.345,2.345,0,0,0,536.72,163.576Z" fill="#fff" opacity="0.2"/>
    <path id="Path_166" data-name="Path 166" d="M579.729,250.755l-13.93-8.038a1.02,1.02,0,0,0-1.529.884v16.674a2.274,2.274,0,0,0,1.136,1.969l13.928,8.053a1.046,1.046,0,0,0,1.569-.9v-16.6A2.347,2.347,0,0,0,579.729,250.755Z" fill="#fff" opacity="0.2"/>
    <path id="Path_167" data-name="Path 167" d="M458.484,209.732l-13.929-8.038a1.02,1.02,0,0,0-1.529.884v16.674a2.274,2.274,0,0,0,1.136,1.969l13.928,8.053a1.045,1.045,0,0,0,1.568-.9v-16.6A2.346,2.346,0,0,0,458.484,209.732Z" fill="#fff" opacity="0.2"/>
    <path id="Path_168" data-name="Path 168" d="M406.047,346.757c-3.7.035-2.484-2.776-2.484-2.776-5.487-1.673-8.18-.742-8.185-.741a25.44,25.44,0,0,0-.872,8.935c-.025.577.4.93.944,1.131,2.95,1.1,5.637,1.829,11.133,1.293,4.046-.395,8.329-4.14,7.355-7.988C413.332,344.218,409.8,346.721,406.047,346.757Z" fill="#933e31"/>
    <path id="Path_169" data-name="Path 169" d="M404.464,311.992c-1.086-1.408-2.942-2.612-6.022-1.8l-33.065,6.379,1.243,8.492a13.175,13.175,0,0,0,13.929,4.144,51.528,51.528,0,0,0,14.62-6.676l-1.116,23.433a13.166,13.166,0,0,0,9.8-1.181c.774-.467,1.5-23.06,1.73-28.863A5.3,5.3,0,0,0,404.464,311.992Z" fill="#1c75bc"/>
    <path id="Path_170" data-name="Path 170" d="M421.917,353.536c-3.839.037-2.579-2.883-2.579-2.883-5.7-1.736-8.494-.77-8.5-.769a26.4,26.4,0,0,0-.9,9.278c-.026.6.419.965.979,1.173,3.064,1.141,5.854,1.9,11.56,1.343,4.2-.409,8.648-4.3,7.637-8.294C429.481,350.9,425.81,353.5,421.917,353.536Z" fill="#9d4d36"/>
    <g id="Group_27" data-name="Group 27">
      <path id="Path_171" data-name="Path 171" d="M384.342,344.215l-28.379-16.406V331.8l28.381,16.366Z" fill="#bbcee1"/>
      <path id="Path_172" data-name="Path 172" d="M381.755,312.987l-25.792,14.822,28.379,16.406,25.828-14.844Z" fill="#fff"/>
      <path id="Path_173" data-name="Path 173" d="M410.171,329.37l-25.829,14.845,0,3.951,25.827-14.943Z" fill="#a7bcce"/>
    </g>
    <path id="Path_174" data-name="Path 174" d="M420.274,317.439c-1.129-1.462-3.056-2.712-6.253-1.867L379.689,322.2l1.29,8.818a13.682,13.682,0,0,0,14.463,4.3,53.524,53.524,0,0,0,15.18-6.933l-1.158,24.331a13.667,13.667,0,0,0,10.177-1.225c.8-.486,1.556-23.945,1.8-29.969A5.505,5.505,0,0,0,420.274,317.439Z" fill="#2a87c6"/>
    <g id="Group_28" data-name="Group 28">
      <path id="Path_175" data-name="Path 175" d="M358.928,267.779l58.619-34.027a8.016,8.016,0,0,1,8.033-.01l92.344,53.421a3.534,3.534,0,0,1,.008,6.117l-57.316,33.271a9.528,9.528,0,0,1-9.549.012l-92.132-53.3A3.17,3.17,0,0,1,358.928,267.779Z" fill="#e8ebf5"/>
      <path id="Path_176" data-name="Path 176" d="M358.935,273.265l92.132,53.3a9.528,9.528,0,0,0,9.549-.012l57.316-33.271a3.5,3.5,0,0,0,1.757-3.043V294.7l-.007,0a3.5,3.5,0,0,1-1.75,2.986l-57.316,33.271a9.531,9.531,0,0,1-9.549.012l-92.132-53.3a3.138,3.138,0,0,1-1.582-2.763h0v-4.38A3.139,3.139,0,0,0,358.935,273.265Z" fill="#a7bcce"/>
      <path id="Path_177" data-name="Path 177" d="M358.935,273.265l92.132,53.3a9.506,9.506,0,0,0,4.362,1.25v4.413a9.507,9.507,0,0,1-4.362-1.25l-92.132-53.3a3.138,3.138,0,0,1-1.582-2.763h0v-4.38A3.139,3.139,0,0,0,358.935,273.265Z" fill="#bbcee1"/>
    </g>
    <g id="Group_37" data-name="Group 37">
      <g id="Group_32" data-name="Group 32">
        <g id="Group_29" data-name="Group 29">
          <path id="Path_178" data-name="Path 178" d="M402.242,280.085l9.949-5.756a1.51,1.51,0,0,1,1.512,0L444.426,292.1a.666.666,0,0,1,0,1.152l-9.7,5.613a1.792,1.792,0,0,1-1.8,0l-30.683-17.745A.6.6,0,0,1,402.242,280.085Z" fill="#0f4463"/>
          <path id="Path_179" data-name="Path 179" d="M402.243,281.117l30.683,17.745a1.792,1.792,0,0,0,1.8,0l9.7-5.613a.659.659,0,0,0,.331-.573v1.191h0a.657.657,0,0,1-.329.562l-9.7,5.614a1.8,1.8,0,0,1-1.8,0L402.243,282.3a.593.593,0,0,1-.3-.521h0V280.6A.591.591,0,0,0,402.243,281.117Z" fill="#0b3b56"/>
        </g>
        <g id="Group_30" data-name="Group 30">
          <path id="Path_180" data-name="Path 180" d="M412.076,275.944l1.246-.723,1.416.816-1.242.72Z" fill="#1f5e77"/>
          <path id="Path_181" data-name="Path 181" d="M413.842,276.961l1.246-.723,1.415.816-1.242.721Z" fill="#1f5e77"/>
          <path id="Path_182" data-name="Path 182" d="M415.608,277.977l1.246-.723,1.415.816-1.242.72Z" fill="#1f5e77"/>
          <path id="Path_183" data-name="Path 183" d="M417.374,278.994l1.246-.723,1.415.816-1.242.72Z" fill="#1f5e77"/>
          <path id="Path_184" data-name="Path 184" d="M419.14,280.01l1.246-.723,1.415.816-1.242.72Z" fill="#1f5e77"/>
          <path id="Path_185" data-name="Path 185" d="M420.905,281.027l1.246-.723,1.415.816-1.242.721Z" fill="#1f5e77"/>
          <path id="Path_186" data-name="Path 186" d="M422.671,282.043l1.246-.723,1.415.816-1.242.72Z" fill="#1f5e77"/>
          <path id="Path_187" data-name="Path 187" d="M424.437,283.06l1.246-.723,1.416.816-1.242.721Z" fill="#1f5e77"/>
          <path id="Path_188" data-name="Path 188" d="M426.2,284.076l1.246-.723,1.415.816-1.242.721Z" fill="#1f5e77"/>
          <path id="Path_189" data-name="Path 189" d="M427.969,285.093l1.246-.723,1.416.816-1.242.72Z" fill="#1f5e77"/>
          <path id="Path_190" data-name="Path 190" d="M429.735,286.109l1.246-.723,1.415.817-1.242.72Z" fill="#1f5e77"/>
          <path id="Path_191" data-name="Path 191" d="M431.5,287.126l1.246-.723,1.416.816-1.242.72Z" fill="#1f5e77"/>
          <path id="Path_192" data-name="Path 192" d="M434.512,287.419l1.416.817-1.242.72-1.419-.814Z" fill="#1f5e77"/>
          <path id="Path_193" data-name="Path 193" d="M411.884,277.692l-1.419-.814,1.246-.723,1.416.816Z" fill="#1f5e77"/>
          <path id="Path_194" data-name="Path 194" d="M414.891,277.988l-1.242.721-1.42-.814,1.246-.723Z" fill="#1f5e77"/>
          <path id="Path_195" data-name="Path 195" d="M416.657,279l-1.242.72L414,278.911l1.246-.723Z" fill="#1f5e77"/>
          <path id="Path_196" data-name="Path 196" d="M418.423,280.021l-1.242.72-1.419-.814,1.246-.723Z" fill="#1f5e77"/>
          <path id="Path_197" data-name="Path 197" d="M420.189,281.038l-1.242.721-1.419-.814,1.246-.722Z" fill="#1f5e77"/>
          <path id="Path_198" data-name="Path 198" d="M421.955,282.054l-1.242.72-1.42-.814,1.246-.723Z" fill="#1f5e77"/>
          <path id="Path_199" data-name="Path 199" d="M423.721,283.071l-1.242.72-1.419-.814,1.246-.723Z" fill="#1f5e77"/>
          <path id="Path_200" data-name="Path 200" d="M425.487,284.087l-1.242.72-1.42-.814,1.246-.723Z" fill="#1f5e77"/>
          <path id="Path_201" data-name="Path 201" d="M427.253,285.1l-1.242.72-1.42-.814,1.246-.723Z" fill="#1f5e77"/>
          <path id="Path_202" data-name="Path 202" d="M429.018,286.12l-1.242.72-1.419-.814,1.246-.723Z" fill="#1f5e77"/>
          <path id="Path_203" data-name="Path 203" d="M430.784,287.137l-1.242.72-1.419-.814,1.246-.723Z" fill="#1f5e77"/>
          <path id="Path_204" data-name="Path 204" d="M432.55,288.153l-1.242.72-1.419-.814,1.246-.723Z" fill="#1f5e77"/>
          <path id="Path_205" data-name="Path 205" d="M432.9,288.353l1.415.816-1.242.721-1.419-.814Z" fill="#1f5e77"/>
          <path id="Path_206" data-name="Path 206" d="M410.272,278.626l-1.42-.814,1.246-.723,1.416.816Z" fill="#1f5e77"/>
          <path id="Path_207" data-name="Path 207" d="M413.28,278.922l-1.242.72-1.42-.814,1.246-.723Z" fill="#1f5e77"/>
          <path id="Path_208" data-name="Path 208" d="M412.384,279.845l1.246-.723,1.416.816-1.242.72Z" fill="#1f5e77"/>
          <path id="Path_209" data-name="Path 209" d="M416.811,280.955l-1.242.72-1.419-.814,1.245-.723Z" fill="#1f5e77"/>
          <path id="Path_210" data-name="Path 210" d="M418.577,281.971l-1.242.72-1.42-.814,1.246-.723Z" fill="#1f5e77"/>
          <path id="Path_211" data-name="Path 211" d="M420.343,282.988l-1.242.72-1.42-.814,1.246-.723Z" fill="#1f5e77"/>
          <path id="Path_212" data-name="Path 212" d="M422.109,284l-1.241.72-1.42-.814,1.246-.723Z" fill="#1f5e77"/>
          <path id="Path_213" data-name="Path 213" d="M423.875,285.021l-1.242.721-1.419-.814,1.246-.723Z" fill="#1f5e77"/>
          <path id="Path_214" data-name="Path 214" d="M425.641,286.037l-1.242.72-1.419-.814,1.246-.723Z" fill="#1f5e77"/>
          <path id="Path_215" data-name="Path 215" d="M427.407,287.054l-1.242.72-1.42-.814,1.246-.723Z" fill="#1f5e77"/>
          <path id="Path_216" data-name="Path 216" d="M429.172,288.07l-1.242.721-1.419-.814,1.246-.723Z" fill="#1f5e77"/>
          <path id="Path_217" data-name="Path 217" d="M428.277,288.993l1.246-.723,1.415.816-1.242.72Z" fill="#1f5e77"/>
          <path id="Path_218" data-name="Path 218" d="M431.289,289.287l1.415.816-1.242.72-1.419-.814Z" fill="#1f5e77"/>
          <path id="Path_219" data-name="Path 219" d="M408.66,279.56l-1.419-.814,1.246-.723,1.415.816Z" fill="#1f5e77"/>
          <path id="Path_220" data-name="Path 220" d="M409.007,279.762l1.246-.723,1.415.816-1.242.72Z" fill="#1f5e77"/>
          <path id="Path_221" data-name="Path 221" d="M410.772,280.778l1.246-.723,1.415.816-1.242.72Z" fill="#1f5e77"/>
          <path id="Path_222" data-name="Path 222" d="M412.538,281.795l1.246-.723,1.415.816-1.242.721Z" fill="#1f5e77"/>
          <path id="Path_223" data-name="Path 223" d="M414.3,282.811l1.246-.723,1.416.816-1.242.72Z" fill="#1f5e77"/>
          <path id="Path_224" data-name="Path 224" d="M416.07,283.828l1.246-.723,1.415.816-1.242.72Z" fill="#1f5e77"/>
          <path id="Path_225" data-name="Path 225" d="M417.836,284.844l1.246-.723,1.415.817-1.242.72Z" fill="#1f5e77"/>
          <path id="Path_226" data-name="Path 226" d="M419.6,285.861l1.246-.723,1.415.816-1.242.72Z" fill="#1f5e77"/>
          <path id="Path_227" data-name="Path 227" d="M421.368,286.877l1.246-.723,1.415.816-1.242.72Z" fill="#1f5e77"/>
          <path id="Path_228" data-name="Path 228" d="M423.134,287.894l1.246-.723,1.415.816-1.242.72Z" fill="#1f5e77"/>
          <path id="Path_229" data-name="Path 229" d="M424.9,288.91l1.246-.723,1.416.817-1.242.72Z" fill="#1f5e77"/>
          <path id="Path_230" data-name="Path 230" d="M426.665,289.927l1.246-.723,1.415.816-1.242.72Z" fill="#1f5e77"/>
          <path id="Path_231" data-name="Path 231" d="M429.677,290.22l1.415.816-1.242.72-1.42-.814Z" fill="#1f5e77"/>
          <path id="Path_232" data-name="Path 232" d="M407.048,280.493l-1.42-.814,1.246-.723,1.415.816Z" fill="#1f5e77"/>
          <path id="Path_233" data-name="Path 233" d="M407.395,280.7l1.246-.723,1.415.816-1.241.72Z" fill="#1f5e77"/>
          <path id="Path_234" data-name="Path 234" d="M409.161,281.712l1.246-.723,1.415.816-1.241.721Z" fill="#1f5e77"/>
          <path id="Path_235" data-name="Path 235" d="M410.926,282.728l1.246-.723,1.415.816-1.242.72Z" fill="#1f5e77"/>
          <path id="Path_236" data-name="Path 236" d="M412.692,283.745l1.246-.723,1.415.817-1.241.72Z" fill="#1f5e77"/>
          <path id="Path_237" data-name="Path 237" d="M414.458,284.761l1.246-.723,1.415.816-1.242.72Z" fill="#1f5e77"/>
          <path id="Path_238" data-name="Path 238" d="M416.224,285.778l1.246-.723,1.415.816-1.242.72Z" fill="#1f5e77"/>
          <path id="Path_239" data-name="Path 239" d="M417.99,286.794l1.246-.723,1.415.816-1.242.72Z" fill="#1f5e77"/>
          <path id="Path_240" data-name="Path 240" d="M419.756,287.811l1.246-.723,1.415.816-1.242.72Z" fill="#1f5e77"/>
          <path id="Path_241" data-name="Path 241" d="M421.522,288.827l1.246-.723,1.416.816-1.242.721Z" fill="#1f5e77"/>
          <path id="Path_242" data-name="Path 242" d="M423.288,289.844l1.246-.723,1.415.816-1.242.72Z" fill="#1f5e77"/>
          <path id="Path_243" data-name="Path 243" d="M425.054,290.86l1.246-.723,1.416.817-1.242.72Z" fill="#1f5e77"/>
          <path id="Path_244" data-name="Path 244" d="M428.065,291.154l1.416.817-1.242.72-1.419-.814Z" fill="#1f5e77"/>
          <path id="Path_245" data-name="Path 245" d="M405.263,279.89l1.415.816-1.242.721-1.419-.814Z" fill="#1f5e77"/>
          <path id="Path_246" data-name="Path 246" d="M408.444,281.723l-1.242.72-1.419-.814,1.246-.723Z" fill="#1f5e77"/>
          <path id="Path_247" data-name="Path 247" d="M410.21,282.739l-1.242.72-1.419-.814,1.246-.723Z" fill="#1f5e77"/>
          <path id="Path_248" data-name="Path 248" d="M411.976,283.756l-1.242.72-1.419-.814,1.246-.723Z" fill="#1f5e77"/>
          <path id="Path_249" data-name="Path 249" d="M413.742,284.772l-1.242.72-1.419-.814,1.246-.723Z" fill="#1f5e77"/>
          <path id="Path_250" data-name="Path 250" d="M415.508,285.789l-1.242.72-1.42-.814,1.246-.722Z" fill="#1f5e77"/>
          <path id="Path_251" data-name="Path 251" d="M415.858,285.989l1.766,1.017h0l.348.2,1.418.816h0l.72.415,1.045.6h0l1.115.643,2.067,1.19-1.242.72-2.16-1.243-1.025-.588h0l-1.075-.618-.692-.4h0l-1.4-.8-.37-.212h0l-1.766-1.016Z" fill="#1f5e77"/>
          <path id="Path_252" data-name="Path 252" d="M426.1,291.888l-1.242.72-1.419-.814,1.246-.723Z" fill="#1f5e77"/>
          <path id="Path_253" data-name="Path 253" d="M427.869,292.9l-1.242.72-1.42-.814,1.246-.723Z" fill="#1f5e77"/>
        </g>
        <g id="Group_31" data-name="Group 31">
          <path id="Path_254" data-name="Path 254" d="M436.8,290.173l1.246-.723,1.415.816-1.242.72Z" fill="#1f5e77"/>
          <path id="Path_255" data-name="Path 255" d="M438.564,291.19l1.246-.723,1.415.816-1.242.72Z" fill="#1f5e77"/>
          <path id="Path_256" data-name="Path 256" d="M440.33,292.206l1.246-.723,1.415.816-1.242.721Z" fill="#1f5e77"/>
          <path id="Path_257" data-name="Path 257" d="M437.848,291.2l-1.242.72-1.419-.814,1.246-.723Z" fill="#1f5e77"/>
          <path id="Path_258" data-name="Path 258" d="M439.613,292.217l-1.241.721-1.42-.814,1.246-.723Z" fill="#1f5e77"/>
          <path id="Path_259" data-name="Path 259" d="M441.379,293.234l-1.242.72-1.419-.814,1.246-.723Z" fill="#1f5e77"/>
          <path id="Path_260" data-name="Path 260" d="M436.236,292.135l-1.242.72-1.419-.814,1.246-.723Z" fill="#1f5e77"/>
          <path id="Path_261" data-name="Path 261" d="M438,293.151l-1.242.72-1.42-.814,1.246-.723Z" fill="#1f5e77"/>
          <path id="Path_262" data-name="Path 262" d="M439.767,294.168l-1.241.72-1.42-.814,1.246-.723Z" fill="#1f5e77"/>
          <path id="Path_263" data-name="Path 263" d="M431.963,292.974l1.246-.723,1.416.816-1.242.72Z" fill="#1f5e77"/>
          <path id="Path_264" data-name="Path 264" d="M433.729,293.991l1.246-.723,1.416.817-1.242.72Z" fill="#1f5e77"/>
          <path id="Path_265" data-name="Path 265" d="M435.494,295.007l1.246-.723,1.416.817-1.242.72Z" fill="#1f5e77"/>
          <path id="Path_266" data-name="Path 266" d="M430.351,293.908l1.246-.723,1.415.816-1.242.72Z" fill="#1f5e77"/>
          <path id="Path_267" data-name="Path 267" d="M432.117,294.924l1.246-.723,1.416.816-1.242.721Z" fill="#1f5e77"/>
          <path id="Path_268" data-name="Path 268" d="M433.883,295.941l1.246-.723,1.416.816-1.242.721Z" fill="#1f5e77"/>
          <path id="Path_269" data-name="Path 269" d="M431.4,294.935l-1.242.72-1.419-.814,1.246-.723Z" fill="#1f5e77"/>
          <path id="Path_270" data-name="Path 270" d="M433.166,295.952l-1.241.72-1.42-.814,1.246-.723Z" fill="#1f5e77"/>
        </g>
      </g>
      <g id="Group_33" data-name="Group 33">
        <path id="Path_271" data-name="Path 271" d="M424.312,270.536l9.786-5.681a1.339,1.339,0,0,1,1.341,0l23.219,13.4a.591.591,0,0,1,0,1.022l-9.569,5.554a1.59,1.59,0,0,1-1.594,0l-23.183-13.381A.529.529,0,0,1,424.312,270.536Z" fill="#1f5e77"/>
        <path id="Path_272" data-name="Path 272" d="M424.313,271.452,447.5,284.833a1.59,1.59,0,0,0,1.594,0l9.569-5.554a.586.586,0,0,0,.294-.508v1.2h0a.58.58,0,0,1-.292.5l-9.569,5.555a1.59,1.59,0,0,1-1.594,0l-23.183-13.381a.526.526,0,0,1-.264-.462h0V271A.522.522,0,0,0,424.313,271.452Z" fill="#07304b"/>
        <path id="Path_273" data-name="Path 273" d="M424.313,271.452,447.5,284.833a1.584,1.584,0,0,0,.728.209v1.192a1.582,1.582,0,0,1-.728-.208l-23.183-13.381a.526.526,0,0,1-.264-.462h0V271A.522.522,0,0,0,424.313,271.452Z" fill="#0b3b56"/>
      </g>
      <g id="Group_34" data-name="Group 34">
        <path id="Path_274" data-name="Path 274" d="M449.7,271.431l-18.046-10.443v8.941L449.7,280.365Z" fill="#0f4463"/>
        <path id="Path_275" data-name="Path 275" d="M434.167,259.547l-2.513,1.442L449.7,271.431l2.519-1.446Z" fill="#07304b"/>
        <path id="Path_276" data-name="Path 276" d="M452.219,269.986l-2.519,1.446v8.933l2.518-1.463Z" fill="#07304b"/>
      </g>
      <g id="Group_36" data-name="Group 36">
        <g id="Group_35" data-name="Group 35">
          <path id="Path_277" data-name="Path 277" d="M413.415,215.486,468.269,247.3v40.366l-54.853-31.942Z" fill="url(#linear-gradient)"/>
          <path id="Path_278" data-name="Path 278" d="M468.269,247.3l1.824-1.108v40.366l-1.825,1.108Z" fill="#07304b"/>
          <path id="Path_279" data-name="Path 279" d="M413.415,215.486l1.868-1.083,54.81,31.79-1.824,1.108Z" fill="#1f5e77"/>
        </g>
        <path id="Path_280" data-name="Path 280" d="M413.415,215.486v40.239l54.853,31.942V247.3Zm53.554,69.922-52.256-30.43V217.741L466.97,248.05Z" fill="#0b3b56"/>
      </g>
    </g>
    <path id="Path_281" data-name="Path 281" d="M393.1,265.323c-.568,5.765-4.821,10.065-9.5,9.6s-8.007-5.509-7.439-11.275,4.822-10.065,9.5-9.6S393.672,259.557,393.1,265.323Z" fill="#fed4bd"/>
    <path id="Path_282" data-name="Path 282" d="M400.092,278.764s2.033.489,2.738.561,3.376.626,4.468.294-.96-1.057-1.465-1.432-.482-1.318.62-1.651,3.6-.175,4.913-.363-1.31-4.181-3.458-4.55a9.086,9.086,0,0,0-5.886.794c-1.832.9-2.832,2.428-3.685,2.724Z" fill="#f4c5a2"/>
    <path id="Path_283" data-name="Path 283" d="M400.325,273.318l-13.9,3.488-.7,8.833,16.415-5.625C402.477,276.886,400.325,273.318,400.325,273.318Z" fill="#ed5561"/>
    <path id="Path_284" data-name="Path 284" d="M366.029,277.057s-3.845,4.845,0,11.518c0,0,2.69,3.72,10.073.079Z" fill="#ed5561"/>
    <path id="Path_285" data-name="Path 285" d="M377.427,271.395s5.993-.409,10.7,2.879a3.589,3.589,0,0,0,1.289,1.616c.941.627,5.6,2.5,5.6,2.5s-2.056,27.373.3,40.7c0,0-10.134,7.913-25.96,0,0,0-2.313-33.608-3.332-42.03C366.029,277.057,368.667,273.8,377.427,271.395Z" fill="#de495a"/>
    <g id="Group_38" data-name="Group 38">
      <path id="Path_286" data-name="Path 286" d="M374.788,316.581l-28.379-16.406,9.554,27.675,28.381,16.366Z" fill="#bbcee1"/>
      <path id="Path_287" data-name="Path 287" d="M349.543,298.356l-3.134,1.819,28.379,16.406,3.17-1.841Z" fill="#fff"/>
      <path id="Path_288" data-name="Path 288" d="M377.959,314.74l-3.171,1.841,9.556,27.634,3.2-1.846Z" fill="#a7bcce"/>
    </g>
    <path id="Path_289" data-name="Path 289" d="M418.786,290.886s1.549-1.56,2.142-2.006,2.677-2.409,3.846-2.669-.828,1.765-1.069,2.4,1.2-.506,2.289-.915a5.331,5.331,0,0,1,3.72.127c2.686.955,2.555,6.329.36,5.694-3.613-1.045-5.238,1.823-7.394,2.426a21.552,21.552,0,0,1-3.055.559Z" fill="#f4c5a2"/>
    <path id="Path_290" data-name="Path 290" d="M395.017,278.387l11.737,15.551,12.2-3.6s2.617,3.3,1.768,6.8L404.44,303.47l-13.229-14.555S386.78,279.683,395.017,278.387Z" fill="#ed5561"/>
    <path id="Path_291" data-name="Path 291" d="M388.478,249.124s.9,2.165-3.416,2.753-9.657,2.736-11.06,7.29c-.9,2.916.143,6.041,1.606,8.585a16.149,16.149,0,0,0,1.716,2.5,9.313,9.313,0,0,0,6.366-1.1,11.006,11.006,0,0,0,3.427-4.177s2.571,1.071,3.374-1.071c.59-1.574,2.448-1.965,3.46-2.825C393.951,261.082,399.783,251.552,388.478,249.124Z" fill="#9d4d36"/>
    <g id="Group_39" data-name="Group 39">
      <path id="Path_292" data-name="Path 292" d="M549.556,331.939l-18.8-10.915v7.036l18.805,10.885Z" fill="#bbcee1"/>
      <path id="Path_293" data-name="Path 293" d="M550.188,309.855l-19.435,11.169,18.8,10.915,19.463-11.186Z" fill="#fff"/>
      <path id="Path_294" data-name="Path 294" d="M569.02,320.753l-19.463,11.186,0,7.005,19.462-11.26Z" fill="#a7bcce"/>
    </g>
    <g id="Group_40" data-name="Group 40">
      <path id="Path_295" data-name="Path 295" d="M549.556,320.432l-18.8-10.915v7.036l18.805,10.884Z" fill="#bbcee1"/>
      <path id="Path_296" data-name="Path 296" d="M550.188,298.347l-19.435,11.169,18.8,10.915,19.463-11.186Z" fill="#fff"/>
      <path id="Path_297" data-name="Path 297" d="M569.02,309.246l-19.463,11.186,0,7,19.462-11.26Z" fill="#a7bcce"/>
    </g>
    <g id="Group_41" data-name="Group 41">
      <path id="Path_298" data-name="Path 298" d="M517.755,350.353l-18.8-10.915v7.036l18.805,10.885Z" fill="#bbcee1"/>
      <path id="Path_299" data-name="Path 299" d="M518.386,328.269l-19.435,11.169,18.8,10.915,19.462-11.185Z" fill="#fff"/>
      <path id="Path_300" data-name="Path 300" d="M537.218,339.167l-19.463,11.186,0,7.005,19.461-11.26Z" fill="#a7bcce"/>
    </g>
    <g id="Group_42" data-name="Group 42">
      <path id="Path_301" data-name="Path 301" d="M517.755,338.846l-18.8-10.915v7.036l18.805,10.885Z" fill="#bbcee1"/>
      <path id="Path_302" data-name="Path 302" d="M518.386,316.761,498.951,327.93l18.8,10.915,19.462-11.186Z" fill="#fff"/>
      <path id="Path_303" data-name="Path 303" d="M537.218,327.66l-19.463,11.186,0,7,19.461-11.26Z" fill="#a7bcce"/>
    </g>
    <g id="Group_43" data-name="Group 43">
      <path id="Path_304" data-name="Path 304" d="M485.953,368.767l-18.8-10.915v7.036l18.805,10.885Z" fill="#bbcee1"/>
      <path id="Path_305" data-name="Path 305" d="M486.584,346.683l-19.435,11.169,18.8,10.915,19.462-11.186Z" fill="#fff"/>
      <path id="Path_306" data-name="Path 306" d="M505.416,357.582l-19.463,11.186,0,7,19.461-11.26Z" fill="#a7bcce"/>
    </g>
    <g id="Group_44" data-name="Group 44">
      <path id="Path_307" data-name="Path 307" d="M485.953,357.26l-18.8-10.915v7.036l18.805,10.885Z" fill="#bbcee1"/>
      <path id="Path_308" data-name="Path 308" d="M486.584,335.175l-19.435,11.169,18.8,10.915,19.462-11.186Z" fill="#fff"/>
      <path id="Path_309" data-name="Path 309" d="M505.416,346.074,485.953,357.26l0,7.005L505.416,353Z" fill="#a7bcce"/>
    </g>
    <g id="Group_45" data-name="Group 45">
      <path id="Path_310" data-name="Path 310" d="M491.82,350.365l-1.182-.682a10.934,10.934,0,0,1-2.765.665l.005.963H485.01l-.007-.964a11.072,11.072,0,0,1-2.769-.665l-1.174.682-2.037-1.176,1.174-.682a3.732,3.732,0,0,1-1.157-1.6h-1.663l-.009-1.662h1.663a3.687,3.687,0,0,1,1.139-1.6l-1.18-.681,2.022-1.175,1.179.681a11.054,11.054,0,0,1,2.764-.664l0-.964h2.87l0,.964a11.024,11.024,0,0,1,2.771.664l1.174-.682,2.036,1.176-1.174.682a3.707,3.707,0,0,1,1.156,1.6h1.666l.008,1.661H493.8a3.638,3.638,0,0,1-1.137,1.6l1.181.682Zm-8.057-2.75a5.862,5.862,0,0,0,5.323,0c1.465-.851,1.457-2.231-.018-3.082a5.86,5.86,0,0,0-5.322,0c-1.465.851-1.458,2.231.017,3.082" fill="#1c75bc"/>
    </g>
    <path id="Path_311" data-name="Path 311" d="M519.823,322.832l1.829,3.9,1.829,3.906-6.749-1.046-6.747-1.047,4.92-2.859Z" fill="#ef4136"/>
    <g id="Group_46" data-name="Group 46">
      <path id="Path_312" data-name="Path 312" d="M542.831,308.409q-1.525-.882,1.374-2.566a8.536,8.536,0,0,1,2.567-1.042,2.648,2.648,0,0,1,1.845.161,1.306,1.306,0,0,1,.493.451,2.474,2.474,0,0,1,.228.506l1.778-.434a2.2,2.2,0,0,0-.464-.78,3.237,3.237,0,0,0-.757-.58,5.354,5.354,0,0,0-3.318-.6,10.091,10.091,0,0,0-3.953,1.392,4.965,4.965,0,0,0-2.394,2.272q-.364,1.1,1.054,1.913a5.124,5.124,0,0,0,1.985.673l1.38-.8A5.289,5.289,0,0,1,542.831,308.409Z" fill="#91a6b7"/>
      <path id="Path_313" data-name="Path 313" d="M551.277,310.56a1.733,1.733,0,0,0-.029-1.315,1.8,1.8,0,0,1-.141-.908.923.923,0,0,1,.495-.57,1.973,1.973,0,0,1,.88-.274,1.466,1.466,0,0,1,.832.19,1.6,1.6,0,0,1,.522.449,3.308,3.308,0,0,1,.293.5l1.761-.425a3,3,0,0,0-1.32-1.382,4.282,4.282,0,0,0-2.244-.567,4.61,4.61,0,0,0-2.3.642,3.005,3.005,0,0,0-.836.658,1.577,1.577,0,0,0-.332.694,1.92,1.92,0,0,0,.111.886,1.914,1.914,0,0,1,.12.959.908.908,0,0,1-.49.6,1.845,1.845,0,0,1-.9.255,1.717,1.717,0,0,1-.921-.247,2.514,2.514,0,0,1-1.119-1.355l-1.537.893a3.473,3.473,0,0,0,1.443,1.33,4.459,4.459,0,0,0,2.337.627,4.849,4.849,0,0,0,2.386-.7A2.349,2.349,0,0,0,551.277,310.56Z" fill="#91a6b7"/>
      <path id="Path_314" data-name="Path 314" d="M559.433,309.632a4.27,4.27,0,0,0-2.243-.567,4.653,4.653,0,0,0-2.3.641,3.138,3.138,0,0,0-.835.659,1.569,1.569,0,0,0-.333.694,1.981,1.981,0,0,0,.111.885,1.973,1.973,0,0,1,.125.963.935.935,0,0,1-.495.6,1.866,1.866,0,0,1-.893.257,1.731,1.731,0,0,1-.922-.247,2.509,2.509,0,0,1-1.119-1.355l-1.537.894a3.467,3.467,0,0,0,1.439,1.327,4.444,4.444,0,0,0,2.338.627,4.863,4.863,0,0,0,2.39-.7,2.342,2.342,0,0,0,.978-.945,1.709,1.709,0,0,0-.028-1.315,1.769,1.769,0,0,1-.137-.906.9.9,0,0,1,.49-.572,1.961,1.961,0,0,1,.881-.274,1.46,1.46,0,0,1,.836.193,1.59,1.59,0,0,1,.518.446,3.255,3.255,0,0,1,.292.5l1.761-.425A2.992,2.992,0,0,0,559.433,309.632Z" fill="#91a6b7"/>
    </g>
    <g id="Group_50" data-name="Group 50">
      <g id="Group_48" data-name="Group 48">
        <g id="Group_47" data-name="Group 47">
          <path id="Path_315" data-name="Path 315" d="M549.137,246.825l-18.263-10.539a1.724,1.724,0,0,0-1.828.073h0l-4.01,2.316L526.9,241.2l.7.8v18.094A3.017,3.017,0,0,0,529.1,262.7l13.669,7.9.14.76,2.789,3.909,4.29-2.522.022-.013.029-.016v0a1.371,1.371,0,0,0,.654-1.175V249.52A3.11,3.11,0,0,0,549.137,246.825Z" fill="#79ff68"/>
          <path id="Path_316" data-name="Path 316" d="M544.868,249.334l-18.479-10.663a1.353,1.353,0,0,0-2.028,1.173v22.119a3.016,3.016,0,0,0,1.507,2.612l18.477,10.682a1.386,1.386,0,0,0,2.08-1.2V252.03A3.112,3.112,0,0,0,544.868,249.334Z" fill="#50e85e"/>
        </g>
      </g>
      <g id="Group_49" data-name="Group 49">
        <path id="Path_317" data-name="Path 317" d="M545.726,275.26l-.026.016,0,0C545.707,275.267,545.717,275.265,545.726,275.26Z" fill="#bbcee1"/>
        <path id="Path_318" data-name="Path 318" d="M546.425,274.057V252.03a3.076,3.076,0,0,0-.212-1.062L550.5,248.5a3.077,3.077,0,0,1,.194,1.02v22.027a1.37,1.37,0,0,1-.655,1.175v0l-.028.017-.022.013-4.254,2.5A1.371,1.371,0,0,0,546.425,274.057Z" fill="#3cc743"/>
      </g>
    </g>
    <g id="Group_54" data-name="Group 54">
      <g id="Group_52" data-name="Group 52">
        <g id="Group_51" data-name="Group 51">
          <path id="Path_319" data-name="Path 319" d="M570.036,202.827l-18.264-10.539a1.724,1.724,0,0,0-1.828.073h0l-4.011,2.316L547.8,197.2l.7.8v18.094A3.018,3.018,0,0,0,550,218.707l13.669,7.9.14.76,2.789,3.909,4.29-2.522.022-.013.029-.016v0a1.373,1.373,0,0,0,.654-1.176V205.523A3.11,3.11,0,0,0,570.036,202.827Z" fill="#9263c1"/>
          <path id="Path_320" data-name="Path 320" d="M565.767,205.337l-18.479-10.663a1.353,1.353,0,0,0-2.029,1.172v22.12a3.016,3.016,0,0,0,1.508,2.611l18.476,10.683a1.387,1.387,0,0,0,2.081-1.2V208.032A3.111,3.111,0,0,0,565.767,205.337Z" fill="#8444b2"/>
        </g>
      </g>
      <g id="Group_53" data-name="Group 53">
        <path id="Path_321" data-name="Path 321" d="M566.625,231.262l-.027.016,0,0Z" fill="#bbcee1"/>
        <path id="Path_322" data-name="Path 322" d="M567.324,230.059V208.032a3.07,3.07,0,0,0-.211-1.061L571.4,204.5a3.083,3.083,0,0,1,.194,1.021v22.026a1.37,1.37,0,0,1-.654,1.175v0l-.029.016-.022.013-4.253,2.5A1.374,1.374,0,0,0,567.324,230.059Z" fill="#7231a3"/>
      </g>
    </g>
    <g id="Group_58" data-name="Group 58">
      <g id="Group_56" data-name="Group 56">
        <g id="Group_55" data-name="Group 55">
          <path id="Path_323" data-name="Path 323" d="M508.965,203.146,490.7,192.607a1.724,1.724,0,0,0-1.828.073h0l-4.011,2.316,1.865,2.528.7.8v18.1a3.018,3.018,0,0,0,1.507,2.612l13.669,7.9.14.759,2.789,3.909,4.29-2.522.022-.013.029-.016v0a1.373,1.373,0,0,0,.654-1.176V205.842A3.11,3.11,0,0,0,508.965,203.146Z" fill="#ffa8e1"/>
          <path id="Path_324" data-name="Path 324" d="M504.7,205.656l-18.479-10.663a1.353,1.353,0,0,0-2.029,1.172v22.119A3.019,3.019,0,0,0,485.7,220.9l18.476,10.682a1.387,1.387,0,0,0,2.081-1.2V208.351A3.111,3.111,0,0,0,504.7,205.656Z" fill="#ff7ad2"/>
        </g>
      </g>
      <g id="Group_57" data-name="Group 57">
        <path id="Path_325" data-name="Path 325" d="M505.554,231.581l-.027.016,0,0C505.534,231.588,505.545,231.587,505.554,231.581Z" fill="#bbcee1"/>
        <path id="Path_326" data-name="Path 326" d="M506.253,230.378V208.351a3.07,3.07,0,0,0-.211-1.061l4.286-2.469a3.084,3.084,0,0,1,.194,1.021v22.026a1.37,1.37,0,0,1-.654,1.175v0l-.029.016-.022.013-4.253,2.5A1.374,1.374,0,0,0,506.253,230.378Z" fill="#de64c6"/>
      </g>
    </g>
    <g id="Group_62" data-name="Group 62">
      <g id="Group_60" data-name="Group 60">
        <g id="Group_59" data-name="Group 59">
          <path id="Path_327" data-name="Path 327" d="M468.97,160.488l-18.263-10.539a1.725,1.725,0,0,0-1.828.072h0l-4.01,2.315,1.865,2.529.694.8v18.094a3.017,3.017,0,0,0,1.508,2.612l13.669,7.9.14.76,2.789,3.908,4.29-2.522.022-.012.029-.017v0a1.371,1.371,0,0,0,.654-1.175V163.183A3.11,3.11,0,0,0,468.97,160.488Z" fill="#fcec32"/>
          <path id="Path_328" data-name="Path 328" d="M464.7,163l-18.479-10.663a1.353,1.353,0,0,0-2.028,1.172v22.12a3.019,3.019,0,0,0,1.507,2.612l18.477,10.682a1.387,1.387,0,0,0,2.081-1.2V165.693A3.11,3.11,0,0,0,464.7,163Z" fill="#f5d012"/>
        </g>
      </g>
      <g id="Group_61" data-name="Group 61">
        <path id="Path_329" data-name="Path 329" d="M465.56,188.923l-.027.015,0,0C465.54,188.93,465.551,188.928,465.56,188.923Z" fill="#bbcee1"/>
        <path id="Path_330" data-name="Path 330" d="M466.259,187.72V165.692a3.094,3.094,0,0,0-.211-1.061l4.286-2.468a3.073,3.073,0,0,1,.194,1.02V185.21a1.371,1.371,0,0,1-.654,1.175v0l-.029.017-.022.012-4.254,2.5A1.371,1.371,0,0,0,466.259,187.72Z" fill="#eaa10c"/>
      </g>
    </g>
    <path id="Path_331" data-name="Path 331" d="M501.051,210a11.7,11.7,0,0,0-4.065-4.289,4.092,4.092,0,0,0-4.073-.409c-2,1.14-2.23,4.571-.687,8.04l-5.02,2.861,1.462,2.532,5.02-2.86a10.975,10.975,0,0,0,3.267,3.059,4.1,4.1,0,0,0,4.069.413C503.278,218.06,503.29,213.875,501.051,210Zm-1.489,6.815a2.624,2.624,0,0,1-2.605-.264,7.476,7.476,0,0,1-2.6-2.741c-1.432-2.481-1.424-5.158.017-5.976a2.621,2.621,0,0,1,2.606.264,7.486,7.486,0,0,1,2.6,2.74C501.011,213.313,501,215.99,499.562,216.812Z" fill="#fff"/>
    <g id="Group_63" data-name="Group 63">
      <path id="Path_332" data-name="Path 332" d="M450.015,164.9a4.217,4.217,0,0,1,.833.652c.282.276.563.57.844.886l.519-1.187a9.084,9.084,0,0,0-2.192-1.87,3.232,3.232,0,0,0-1.871-.541,1.519,1.519,0,0,0-1.223.845,4.317,4.317,0,0,0-.433,2.1,7.955,7.955,0,0,0,.855,3.772,6.365,6.365,0,0,0,2.5,2.582,5.3,5.3,0,0,0,2.062.748l0-1.532a5.786,5.786,0,0,1-1.913-.649q-1.879-1.085-1.873-3.965a2.671,2.671,0,0,1,.5-1.873C448.951,164.543,449.417,164.553,450.015,164.9Z" fill="#8444b2"/>
      <path id="Path_333" data-name="Path 333" d="M456.13,168.451l-1.12-.646L455,170.1l-1.984-1.146,0,1.291L455,171.393l-.006,2.267,1.12.646.007-2.267,1.984,1.145,0-1.291-1.984-1.145Z" fill="#8444b2"/>
      <path id="Path_334" data-name="Path 334" d="M462.114,174.207l.007-2.3L461,171.261l-.007,2.3-1.98-1.143,0,1.291,1.98,1.143-.006,2.267,1.123.648.006-2.266,1.98,1.143,0-1.291Z" fill="#8444b2"/>
    </g>
    <g id="Group_64" data-name="Group 64">
      <path id="Path_335" data-name="Path 335" d="M551.311,203.937a1.775,1.775,0,0,0-.3,1.207L551,207.788v.067q0,.755-.484.808a2.521,2.521,0,0,1-1.372-.46l-.006,1.84a4.628,4.628,0,0,1,1.371,1.129,2.261,2.261,0,0,1,.477,1.436l-.007,2.613a3.718,3.718,0,0,0,.3,1.559,3.915,3.915,0,0,0,.943,1.269,9.855,9.855,0,0,0,1.787,1.259l.005-1.742a2.907,2.907,0,0,1-1-.889,1.983,1.983,0,0,1-.259-1.04l.007-2.5v-.1a3.445,3.445,0,0,0-1.655-2.737v-.1c1.095.448,1.647.14,1.666-.918l.007-2.5c0-.4.093-.647.269-.735s.508,0,.994.266l.005-1.742a7.054,7.054,0,0,0-1.778-.8A.947.947,0,0,0,551.311,203.937Z" fill="#fff"/>
      <path id="Path_336" data-name="Path 336" d="M561.641,215.086a2.163,2.163,0,0,1-.467-1.357v-.068l.008-2.643a3.553,3.553,0,0,0-.678-2.2,7.741,7.741,0,0,0-2.358-1.883l-.005,1.742a2.928,2.928,0,0,1,1,.883,1.94,1.94,0,0,1,.259,1.04l-.007,2.5a3.6,3.6,0,0,0,1.671,2.845v.1a1.619,1.619,0,0,0-1.246-.123c-.289.14-.434.455-.435.958v.074l-.007,2.5c0,.405-.087.656-.264.745s-.513-.008-1-.27l-.005,1.742a4.273,4.273,0,0,0,2.361.835c.455-.088.686-.557.688-1.415l.008-2.613c0-.546.162-.84.473-.888a2.411,2.411,0,0,1,1.372.455l.006-1.84A4.671,4.671,0,0,1,561.641,215.086Z" fill="#fff"/>
    </g>
    <g id="Group_65" data-name="Group 65">
      <path id="Path_337" data-name="Path 337" d="M526.705,252.925l5.724,6.216,0-1.584-3.945-4.151,3.956.179,0-1.594-5.742-.019Z" fill="#1f5e77"/>
      <path id="Path_338" data-name="Path 338" d="M533.018,260.83l1.6.922,3.179-7.886-1.6-.925Z" fill="#1f5e77"/>
      <path id="Path_339" data-name="Path 339" d="M538.354,255.4l0,1.594,3.949,4.385-3.96-.413,0,1.584,5.745.406,0-.952Z" fill="#1f5e77"/>
    </g>
    <g id="Group_100" data-name="Group 100">
      <g id="Group_72" data-name="Group 72">
        <path id="Path_340" data-name="Path 340" d="M420.239,223.87v1.071l4.5,2.594v-1.07Z" fill="#f5d012"/>
        <path id="Path_341" data-name="Path 341" d="M420.239,225.826v1.07l4.5,2.594v-1.07Z" fill="#edf0f8"/>
        <path id="Path_342" data-name="Path 342" d="M420.239,227.781v1.07l4.5,2.594v-1.071Z" fill="#edf0f8"/>
        <path id="Path_343" data-name="Path 343" d="M454.176,250.382v-1.071L426.423,233.3v1.07Z" fill="#edf0f8"/>
        <path id="Path_344" data-name="Path 344" d="M420.239,229.737v1.07l4.5,2.594V232.33Z" fill="#edf0f8"/>
        <path id="Path_345" data-name="Path 345" d="M420.239,231.692v1.071l4.5,2.594v-1.071Z" fill="#edf0f8"/>
        <path id="Path_346" data-name="Path 346" d="M454.176,252.337v-1.07l-27.753-16.008v1.071Z" fill="#50e85e"/>
        <path id="Path_347" data-name="Path 347" d="M420.239,237.559v1.071l4.5,2.594v-1.07Z" fill="#edf0f8"/>
        <path id="Path_348" data-name="Path 348" d="M420.239,239.514v1.07l4.5,2.594v-1.071Z" fill="#f5d012"/>
        <path id="Path_349" data-name="Path 349" d="M420.239,247.336v1.07l4.5,2.594v-1.07Z" fill="#edf0f8"/>
        <path id="Path_350" data-name="Path 350" d="M420.239,249.291v1.07l4.5,2.594v-1.07Z" fill="#edf0f8"/>
        <g id="Group_66" data-name="Group 66">
          <path id="Path_351" data-name="Path 351" d="M443.932,262.957l-17.508-10.1v1.07l17.508,10.1Z" fill="#50e85e"/>
          <path id="Path_352" data-name="Path 352" d="M444.854,263.49v1.07l9.322,5.377v-1.071Z" fill="#edf0f8"/>
        </g>
        <g id="Group_67" data-name="Group 67">
          <path id="Path_353" data-name="Path 353" d="M435.219,255.977l-8.8-5.074v1.07l8.8,5.074Z" fill="#edf0f8"/>
          <path id="Path_354" data-name="Path 354" d="M436.142,256.509v1.07l18.034,10.4v-1.07Z" fill="#edf0f8"/>
        </g>
        <path id="Path_355" data-name="Path 355" d="M451.8,259.676v1.07l2.372,1.368v-1.07Z" fill="#edf0f8"/>
        <path id="Path_356" data-name="Path 356" d="M438.893,250.274l-12.47-7.193v1.07l12.47,7.193Z" fill="#ed5561"/>
        <path id="Path_357" data-name="Path 357" d="M433.784,231.683l-7.361-4.245v1.07l7.361,4.245Z" fill="#edf0f8"/>
        <g id="Group_68" data-name="Group 68">
          <path id="Path_358" data-name="Path 358" d="M445.849,238.642l-11.142-6.427v1.07l11.142,6.427Z" fill="#edf0f8"/>
        </g>
        <path id="Path_359" data-name="Path 359" d="M439.355,236.852l-7.845-4.525v1.07l7.845,4.525Z" fill="#edf0f8"/>
        <g id="Group_69" data-name="Group 69">
          <path id="Path_360" data-name="Path 360" d="M447.586,241.6l-7.308-4.215v1.07l7.308,4.215Z" fill="#ed5561"/>
          <path id="Path_361" data-name="Path 361" d="M448.508,242.131V243.2l5.668,3.269V245.4Z" fill="#edf0f8"/>
        </g>
        <path id="Path_362" data-name="Path 362" d="M427.873,232.184v1.07l5.911,3.409v-1.07Z" fill="#ed5561"/>
        <path id="Path_363" data-name="Path 363" d="M451.863,246.022l-17.157-9.9v1.07l17.157,9.9Z" fill="#edf0f8"/>
        <path id="Path_364" data-name="Path 364" d="M442.041,246.223l-11.212-6.467v1.071l11.212,6.467Z" fill="#edf0f8"/>
        <path id="Path_365" data-name="Path 365" d="M451.863,251.889l-8.9-5.133v1.07l8.9,5.134Z" fill="#edf0f8"/>
        <g id="Group_70" data-name="Group 70">
          <path id="Path_366" data-name="Path 366" d="M450.881,257.188l-11.065-6.382v1.07l11.065,6.382Z" fill="#edf0f8"/>
        </g>
        <path id="Path_367" data-name="Path 367" d="M444.854,255.668v1.07l6.026,3.476v-1.07Z" fill="#50e85e"/>
        <path id="Path_368" data-name="Path 368" d="M428.593,246.288l-2.17-1.252v1.071l2.17,1.252Z" fill="#edf0f8"/>
        <g id="Group_71" data-name="Group 71">
          <path id="Path_369" data-name="Path 369" d="M432.658,248.633v1.07l11.273,6.5v-1.071Z" fill="#edf0f8"/>
          <path id="Path_370" data-name="Path 370" d="M431.735,248.1l-2.219-1.28v1.07l2.219,1.28Z" fill="#edf0f8"/>
        </g>
        <path id="Path_371" data-name="Path 371" d="M441.846,255.888l-12.33-7.112v1.07l12.33,7.112Z" fill="#edf0f8"/>
      </g>
      <g id="Group_79" data-name="Group 79">
        <path id="Path_372" data-name="Path 372" d="M456.128,244.584v.295l1.239.715V245.3Z" fill="#edf0f8"/>
        <path id="Path_373" data-name="Path 373" d="M456.128,245.122v.295l1.239.715v-.295Z" fill="#edf0f8"/>
        <path id="Path_374" data-name="Path 374" d="M456.128,245.661v.295l1.239.715v-.3Z" fill="#edf0f8"/>
        <path id="Path_375" data-name="Path 375" d="M465.479,251.889v-.295l-7.647-4.411v.295Z" fill="#edf0f8"/>
        <path id="Path_376" data-name="Path 376" d="M456.128,246.2v.295l1.239.715v-.295Z" fill="#edf0f8"/>
        <path id="Path_377" data-name="Path 377" d="M456.128,246.739v.295l1.239.715v-.295Z" fill="#edf0f8"/>
        <path id="Path_378" data-name="Path 378" d="M465.479,252.427v-.295l-7.647-4.411v.295Z" fill="#edf0f8"/>
        <path id="Path_379" data-name="Path 379" d="M456.128,248.355v.295l1.239.715v-.295Z" fill="#edf0f8"/>
        <path id="Path_380" data-name="Path 380" d="M456.128,248.894v.295l1.239.715v-.295Z" fill="#edf0f8"/>
        <path id="Path_381" data-name="Path 381" d="M456.128,251.049v.295l1.239.715v-.295Z" fill="#edf0f8"/>
        <path id="Path_382" data-name="Path 382" d="M456.128,251.588v.295l1.239.715V252.3Z" fill="#edf0f8"/>
        <g id="Group_73" data-name="Group 73">
          <path id="Path_383" data-name="Path 383" d="M462.656,255.354l-4.824-2.783v.295l4.824,2.783Z" fill="#edf0f8"/>
          <path id="Path_384" data-name="Path 384" d="M462.91,255.5v.295l2.568,1.482v-.295Z" fill="#edf0f8"/>
        </g>
        <g id="Group_74" data-name="Group 74">
          <path id="Path_385" data-name="Path 385" d="M460.255,253.43l-2.424-1.4v.295l2.424,1.4Z" fill="#edf0f8"/>
          <path id="Path_386" data-name="Path 386" d="M460.51,253.577v.295l4.969,2.866v-.3Z" fill="#edf0f8"/>
        </g>
        <path id="Path_387" data-name="Path 387" d="M464.825,254.449v.295l.654.377v-.295Z" fill="#edf0f8"/>
        <path id="Path_388" data-name="Path 388" d="M461.268,251.859l-3.436-1.982v.295l3.436,1.982Z" fill="#edf0f8"/>
        <path id="Path_389" data-name="Path 389" d="M459.86,246.736l-2.028-1.17v.295l2.028,1.17Z" fill="#edf0f8"/>
        <g id="Group_75" data-name="Group 75">
          <path id="Path_390" data-name="Path 390" d="M463.184,248.654l-3.07-1.771v.295l3.07,1.771Z" fill="#edf0f8"/>
        </g>
        <path id="Path_391" data-name="Path 391" d="M461.395,248.16l-2.161-1.247v.295l2.161,1.247Z" fill="#edf0f8"/>
        <g id="Group_76" data-name="Group 76">
          <path id="Path_392" data-name="Path 392" d="M463.663,249.469l-2.014-1.161v.295l2.014,1.161Z" fill="#edf0f8"/>
          <path id="Path_393" data-name="Path 393" d="M463.917,249.615v.295l1.562.9v-.295Z" fill="#edf0f8"/>
        </g>
        <path id="Path_394" data-name="Path 394" d="M458.231,246.874v.295l1.629.939v-.295Z" fill="#edf0f8"/>
        <path id="Path_395" data-name="Path 395" d="M464.841,250.687l-4.727-2.727v.295l4.727,2.727Z" fill="#edf0f8"/>
        <path id="Path_396" data-name="Path 396" d="M462.135,250.743l-3.09-1.782v.295l3.09,1.782Z" fill="#edf0f8"/>
        <path id="Path_397" data-name="Path 397" d="M464.841,252.3l-2.452-1.414v.295l2.452,1.414Z" fill="#edf0f8"/>
        <g id="Group_77" data-name="Group 77">
          <path id="Path_398" data-name="Path 398" d="M464.571,253.764l-3.049-1.759v.295l3.049,1.759Z" fill="#edf0f8"/>
        </g>
        <path id="Path_399" data-name="Path 399" d="M462.91,253.345v.295l1.66.958V254.3Z" fill="#edf0f8"/>
        <path id="Path_400" data-name="Path 400" d="M458.429,250.761l-.6-.345v.295l.6.345Z" fill="#edf0f8"/>
        <g id="Group_78" data-name="Group 78">
          <path id="Path_401" data-name="Path 401" d="M459.55,251.407v.295l3.106,1.792V253.2Z" fill="#edf0f8"/>
          <path id="Path_402" data-name="Path 402" d="M459.3,251.26l-.612-.353v.295l.612.353Z" fill="#edf0f8"/>
        </g>
        <path id="Path_403" data-name="Path 403" d="M462.081,253.406l-3.4-1.96v.295l3.4,1.96Z" fill="#edf0f8"/>
      </g>
      <g id="Group_86" data-name="Group 86">
        <path id="Path_404" data-name="Path 404" d="M456.128,253.7V254l1.239.715v-.295Z" fill="#edf0f8"/>
        <path id="Path_405" data-name="Path 405" d="M456.128,254.24v.295l1.239.715v-.295Z" fill="#edf0f8"/>
        <path id="Path_406" data-name="Path 406" d="M456.128,254.778v.295l1.239.715v-.295Z" fill="#edf0f8"/>
        <path id="Path_407" data-name="Path 407" d="M465.479,261.006v-.3l-7.647-4.411v.3Z" fill="#edf0f8"/>
        <path id="Path_408" data-name="Path 408" d="M456.128,255.317v.3l1.239.715v-.3Z" fill="#edf0f8"/>
        <path id="Path_409" data-name="Path 409" d="M456.128,255.856v.3l1.239.715v-.3Z" fill="#edf0f8"/>
        <path id="Path_410" data-name="Path 410" d="M465.479,261.544v-.295l-7.647-4.411v.295Z" fill="#edf0f8"/>
        <path id="Path_411" data-name="Path 411" d="M456.128,257.472v.3l1.239.715v-.295Z" fill="#edf0f8"/>
        <path id="Path_412" data-name="Path 412" d="M456.128,258.011v.295l1.239.715v-.3Z" fill="#edf0f8"/>
        <path id="Path_413" data-name="Path 413" d="M456.128,260.166v.295l1.239.715v-.295Z" fill="#edf0f8"/>
        <path id="Path_414" data-name="Path 414" d="M456.128,260.705v.3l1.239.715v-.3Z" fill="#edf0f8"/>
        <g id="Group_80" data-name="Group 80">
          <path id="Path_415" data-name="Path 415" d="M462.656,264.471l-4.824-2.783v.3l4.824,2.783Z" fill="#edf0f8"/>
          <path id="Path_416" data-name="Path 416" d="M462.91,264.617v.295l2.568,1.482v-.3Z" fill="#edf0f8"/>
        </g>
        <g id="Group_81" data-name="Group 81">
          <path id="Path_417" data-name="Path 417" d="M460.255,262.547l-2.424-1.4v.3l2.424,1.4Z" fill="#edf0f8"/>
          <path id="Path_418" data-name="Path 418" d="M460.51,262.694v.295l4.969,2.866v-.3Z" fill="#edf0f8"/>
        </g>
        <path id="Path_419" data-name="Path 419" d="M464.825,263.567v.295l.654.377v-.295Z" fill="#edf0f8"/>
        <path id="Path_420" data-name="Path 420" d="M461.268,260.976l-3.436-1.982v.295l3.436,1.982Z" fill="#edf0f8"/>
        <path id="Path_421" data-name="Path 421" d="M459.86,255.853l-2.028-1.17v.295l2.028,1.17Z" fill="#edf0f8"/>
        <g id="Group_82" data-name="Group 82">
          <path id="Path_422" data-name="Path 422" d="M463.184,257.771,460.114,256v.295l3.07,1.771Z" fill="#edf0f8"/>
        </g>
        <path id="Path_423" data-name="Path 423" d="M461.395,257.277l-2.161-1.247v.295l2.161,1.247Z" fill="#edf0f8"/>
        <g id="Group_83" data-name="Group 83">
          <path id="Path_424" data-name="Path 424" d="M463.663,258.586l-2.014-1.161v.295l2.014,1.162Z" fill="#edf0f8"/>
          <path id="Path_425" data-name="Path 425" d="M463.917,258.732v.295l1.562.9v-.295Z" fill="#edf0f8"/>
        </g>
        <path id="Path_426" data-name="Path 426" d="M458.231,255.992v.295l1.629.939v-.295Z" fill="#edf0f8"/>
        <path id="Path_427" data-name="Path 427" d="M464.841,259.8l-4.727-2.727v.295l4.727,2.727Z" fill="#edf0f8"/>
        <path id="Path_428" data-name="Path 428" d="M462.135,259.86l-3.09-1.782v.295l3.09,1.782Z" fill="#edf0f8"/>
        <path id="Path_429" data-name="Path 429" d="M464.841,261.421l-2.452-1.414v.295l2.452,1.414Z" fill="#edf0f8"/>
        <g id="Group_84" data-name="Group 84">
          <path id="Path_430" data-name="Path 430" d="M464.571,262.881l-3.049-1.759v.3l3.049,1.759Z" fill="#edf0f8"/>
        </g>
        <path id="Path_431" data-name="Path 431" d="M462.91,262.462v.3l1.66.958v-.295Z" fill="#edf0f8"/>
        <path id="Path_432" data-name="Path 432" d="M458.429,259.878l-.6-.345v.295l.6.345Z" fill="#edf0f8"/>
        <g id="Group_85" data-name="Group 85">
          <path id="Path_433" data-name="Path 433" d="M459.55,260.524v.295l3.106,1.792v-.3Z" fill="#edf0f8"/>
          <path id="Path_434" data-name="Path 434" d="M459.3,260.377l-.612-.353v.295l.612.353Z" fill="#edf0f8"/>
        </g>
        <path id="Path_435" data-name="Path 435" d="M462.081,262.523l-3.4-1.96v.295l3.4,1.96Z" fill="#edf0f8"/>
      </g>
      <g id="Group_93" data-name="Group 93">
        <path id="Path_436" data-name="Path 436" d="M456.128,262.818v.3l1.239.715v-.295Z" fill="#edf0f8"/>
        <path id="Path_437" data-name="Path 437" d="M456.128,263.357v.295l1.239.715v-.3Z" fill="#edf0f8"/>
        <path id="Path_438" data-name="Path 438" d="M456.128,263.9v.295l1.239.715v-.3Z" fill="#edf0f8"/>
        <path id="Path_439" data-name="Path 439" d="M465.479,270.123v-.3l-7.647-4.411v.295Z" fill="#edf0f8"/>
        <path id="Path_440" data-name="Path 440" d="M456.128,264.434v.295l1.239.715v-.295Z" fill="#edf0f8"/>
        <path id="Path_441" data-name="Path 441" d="M456.128,264.973v.3l1.239.715v-.295Z" fill="#edf0f8"/>
        <path id="Path_442" data-name="Path 442" d="M465.479,270.661v-.295l-7.647-4.411v.295Z" fill="#edf0f8"/>
        <path id="Path_443" data-name="Path 443" d="M456.128,266.589v.3l1.239.715V267.3Z" fill="#edf0f8"/>
        <path id="Path_444" data-name="Path 444" d="M456.128,267.128v.295l1.239.715v-.295Z" fill="#edf0f8"/>
        <path id="Path_445" data-name="Path 445" d="M456.128,269.283v.3l1.239.715V270Z" fill="#edf0f8"/>
        <path id="Path_446" data-name="Path 446" d="M456.128,269.822v.3l1.239.715v-.3Z" fill="#edf0f8"/>
        <g id="Group_87" data-name="Group 87">
          <path id="Path_447" data-name="Path 447" d="M462.656,273.588l-4.824-2.783v.295l4.824,2.783Z" fill="#edf0f8"/>
          <path id="Path_448" data-name="Path 448" d="M462.91,273.734v.295l2.568,1.482v-.295Z" fill="#edf0f8"/>
        </g>
        <g id="Group_88" data-name="Group 88">
          <path id="Path_449" data-name="Path 449" d="M460.255,271.664l-2.424-1.4v.3l2.424,1.4Z" fill="#edf0f8"/>
          <path id="Path_450" data-name="Path 450" d="M460.51,271.811v.295l4.969,2.866v-.3Z" fill="#edf0f8"/>
        </g>
        <path id="Path_451" data-name="Path 451" d="M464.825,272.684v.295l.654.377v-.295Z" fill="#edf0f8"/>
        <path id="Path_452" data-name="Path 452" d="M461.268,270.093l-3.436-1.982v.3l3.436,1.982Z" fill="#edf0f8"/>
        <path id="Path_453" data-name="Path 453" d="M459.86,264.97l-2.028-1.17v.295l2.028,1.17Z" fill="#edf0f8"/>
        <g id="Group_89" data-name="Group 89">
          <path id="Path_454" data-name="Path 454" d="M463.184,266.888l-3.07-1.771v.295l3.07,1.771Z" fill="#edf0f8"/>
        </g>
        <path id="Path_455" data-name="Path 455" d="M461.395,266.395l-2.161-1.247v.3l2.161,1.247Z" fill="#edf0f8"/>
        <g id="Group_90" data-name="Group 90">
          <path id="Path_456" data-name="Path 456" d="M463.663,267.7l-2.014-1.162v.3L463.663,268Z" fill="#edf0f8"/>
          <path id="Path_457" data-name="Path 457" d="M463.917,267.849v.3l1.562.9v-.295Z" fill="#edf0f8"/>
        </g>
        <path id="Path_458" data-name="Path 458" d="M458.231,265.109v.295l1.629.939v-.295Z" fill="#edf0f8"/>
        <path id="Path_459" data-name="Path 459" d="M464.841,268.921l-4.727-2.727v.295l4.727,2.727Z" fill="#edf0f8"/>
        <path id="Path_460" data-name="Path 460" d="M462.135,268.977l-3.09-1.782v.295l3.09,1.782Z" fill="#edf0f8"/>
        <path id="Path_461" data-name="Path 461" d="M464.841,270.538l-2.452-1.414v.295l2.452,1.414Z" fill="#edf0f8"/>
        <g id="Group_91" data-name="Group 91">
          <path id="Path_462" data-name="Path 462" d="M464.571,272l-3.049-1.759v.3l3.049,1.758Z" fill="#edf0f8"/>
        </g>
        <path id="Path_463" data-name="Path 463" d="M462.91,271.579v.3l1.66.958v-.295Z" fill="#edf0f8"/>
        <path id="Path_464" data-name="Path 464" d="M458.429,268.995l-.6-.345v.295l.6.345Z" fill="#edf0f8"/>
        <g id="Group_92" data-name="Group 92">
          <path id="Path_465" data-name="Path 465" d="M459.55,269.641v.295l3.106,1.792v-.3Z" fill="#edf0f8"/>
          <path id="Path_466" data-name="Path 466" d="M459.3,269.494l-.612-.353v.3l.612.353Z" fill="#edf0f8"/>
        </g>
        <path id="Path_467" data-name="Path 467" d="M462.081,271.64l-3.4-1.96v.295l3.4,1.96Z" fill="#edf0f8"/>
      </g>
      <g id="Group_98" data-name="Group 98">
        <path id="Path_468" data-name="Path 468" d="M456.128,271.935v.295l1.239.715v-.295Z" fill="#edf0f8"/>
        <path id="Path_469" data-name="Path 469" d="M456.128,272.474v.295l1.239.715v-.3Z" fill="#edf0f8"/>
        <path id="Path_470" data-name="Path 470" d="M456.128,273.013v.295l1.239.715v-.295Z" fill="#edf0f8"/>
        <path id="Path_471" data-name="Path 471" d="M465.479,279.24v-.295l-7.647-4.411v.295Z" fill="#edf0f8"/>
        <path id="Path_472" data-name="Path 472" d="M456.128,273.551v.295l1.239.715v-.3Z" fill="#edf0f8"/>
        <path id="Path_473" data-name="Path 473" d="M456.128,274.09v.3l1.239.715V274.8Z" fill="#edf0f8"/>
        <path id="Path_474" data-name="Path 474" d="M465.479,279.779v-.295l-7.647-4.411v.295Z" fill="#edf0f8"/>
        <path id="Path_475" data-name="Path 475" d="M456.128,275.707V276l1.239.715v-.295Z" fill="#edf0f8"/>
        <path id="Path_476" data-name="Path 476" d="M456.128,276.245v.3l1.239.715v-.295Z" fill="#edf0f8"/>
        <path id="Path_477" data-name="Path 477" d="M464.825,281.8v.295l.654.377v-.295Z" fill="#edf0f8"/>
        <path id="Path_478" data-name="Path 478" d="M461.268,279.21l-3.436-1.982v.3l3.436,1.982Z" fill="#edf0f8"/>
        <path id="Path_479" data-name="Path 479" d="M459.86,274.087l-2.028-1.17v.295l2.028,1.17Z" fill="#edf0f8"/>
        <g id="Group_94" data-name="Group 94">
          <path id="Path_480" data-name="Path 480" d="M463.184,276.005l-3.07-1.771v.3l3.07,1.771Z" fill="#edf0f8"/>
        </g>
        <path id="Path_481" data-name="Path 481" d="M461.395,275.512l-2.161-1.247v.3l2.161,1.247Z" fill="#edf0f8"/>
        <g id="Group_95" data-name="Group 95">
          <path id="Path_482" data-name="Path 482" d="M463.663,276.82l-2.014-1.162v.3l2.014,1.161Z" fill="#edf0f8"/>
          <path id="Path_483" data-name="Path 483" d="M463.917,276.966v.3l1.562.9v-.295Z" fill="#edf0f8"/>
        </g>
        <path id="Path_484" data-name="Path 484" d="M458.231,274.226v.3l1.629.939v-.295Z" fill="#edf0f8"/>
        <path id="Path_485" data-name="Path 485" d="M464.841,278.039l-4.727-2.727v.295l4.727,2.727Z" fill="#edf0f8"/>
        <path id="Path_486" data-name="Path 486" d="M462.135,278.094l-3.09-1.782v.3l3.09,1.782Z" fill="#edf0f8"/>
        <path id="Path_487" data-name="Path 487" d="M464.841,279.655l-2.452-1.414v.295l2.452,1.414Z" fill="#edf0f8"/>
        <g id="Group_96" data-name="Group 96">
          <path id="Path_488" data-name="Path 488" d="M464.571,281.115l-3.049-1.759v.3l3.049,1.758Z" fill="#edf0f8"/>
        </g>
        <path id="Path_489" data-name="Path 489" d="M462.91,280.7v.295l1.66.958v-.295Z" fill="#edf0f8"/>
        <path id="Path_490" data-name="Path 490" d="M458.429,278.112l-.6-.345v.295l.6.345Z" fill="#edf0f8"/>
        <g id="Group_97" data-name="Group 97">
          <path id="Path_491" data-name="Path 491" d="M459.55,278.758v.295l3.106,1.792v-.3Z" fill="#edf0f8"/>
          <path id="Path_492" data-name="Path 492" d="M459.3,278.611l-.612-.353v.295l.612.353Z" fill="#edf0f8"/>
        </g>
        <path id="Path_493" data-name="Path 493" d="M462.081,280.757l-3.4-1.96v.295l3.4,1.96Z" fill="#edf0f8"/>
      </g>
      <g id="Group_99" data-name="Group 99">
        <path id="Path_494" data-name="Path 494" d="M417.359,222.208l-1.482-.855a.109.109,0,0,0-.163.094v1.773a.245.245,0,0,0,.121.21l1.482.856a.111.111,0,0,0,.167-.1v-1.766A.25.25,0,0,0,417.359,222.208Z" fill="#50e85e"/>
        <path id="Path_495" data-name="Path 495" d="M417.359,224.861l-1.482-.855a.109.109,0,0,0-.163.094v1.773a.244.244,0,0,0,.121.21l1.482.856a.111.111,0,0,0,.167-.1v-1.766A.25.25,0,0,0,417.359,224.861Z" fill="#50e85e"/>
        <path id="Path_496" data-name="Path 496" d="M417.359,227.514l-1.482-.855a.109.109,0,0,0-.163.094v1.774a.243.243,0,0,0,.121.209l1.482.857a.112.112,0,0,0,.167-.1V227.73A.251.251,0,0,0,417.359,227.514Z" fill="#50e85e"/>
        <path id="Path_497" data-name="Path 497" d="M417.359,230.167l-1.482-.855a.109.109,0,0,0-.163.094v1.774a.243.243,0,0,0,.121.209l1.482.857a.112.112,0,0,0,.167-.1v-1.766A.251.251,0,0,0,417.359,230.167Z" fill="#50e85e"/>
        <path id="Path_498" data-name="Path 498" d="M417.359,232.82l-1.482-.855a.109.109,0,0,0-.163.094v1.774a.243.243,0,0,0,.121.209l1.482.857a.112.112,0,0,0,.167-.1v-1.766A.251.251,0,0,0,417.359,232.82Z" fill="#50e85e"/>
        <path id="Path_499" data-name="Path 499" d="M417.359,235.473l-1.482-.855a.109.109,0,0,0-.163.094v1.774a.243.243,0,0,0,.121.209l1.482.857a.111.111,0,0,0,.167-.1V235.69A.251.251,0,0,0,417.359,235.473Z" fill="#50e85e"/>
        <path id="Path_500" data-name="Path 500" d="M417.359,238.127l-1.482-.855a.109.109,0,0,0-.163.094v1.773a.245.245,0,0,0,.121.21l1.482.856a.111.111,0,0,0,.167-.1v-1.766A.25.25,0,0,0,417.359,238.127Z" fill="#50e85e"/>
        <path id="Path_501" data-name="Path 501" d="M417.359,240.78l-1.482-.855a.109.109,0,0,0-.163.094v1.773a.244.244,0,0,0,.121.21l1.482.856a.111.111,0,0,0,.167-.1V241A.25.25,0,0,0,417.359,240.78Z" fill="#50e85e"/>
        <path id="Path_502" data-name="Path 502" d="M417.359,243.433l-1.482-.855a.109.109,0,0,0-.163.094v1.773a.244.244,0,0,0,.121.21l1.482.857a.112.112,0,0,0,.167-.1v-1.766A.25.25,0,0,0,417.359,243.433Z" fill="#50e85e"/>
        <path id="Path_503" data-name="Path 503" d="M417.359,246.086l-1.482-.855a.109.109,0,0,0-.163.094V247.1a.243.243,0,0,0,.121.209l1.482.857a.111.111,0,0,0,.167-.1V246.3A.251.251,0,0,0,417.359,246.086Z" fill="#50e85e"/>
        <path id="Path_504" data-name="Path 504" d="M417.359,248.739l-1.482-.855a.109.109,0,0,0-.163.094v1.774a.243.243,0,0,0,.121.209l1.482.857a.111.111,0,0,0,.167-.1v-1.767A.251.251,0,0,0,417.359,248.739Z" fill="#50e85e"/>
        <path id="Path_505" data-name="Path 505" d="M417.359,251.392l-1.482-.855a.109.109,0,0,0-.163.094V252.4a.243.243,0,0,0,.121.209l1.482.857a.111.111,0,0,0,.167-.1v-1.766A.251.251,0,0,0,417.359,251.392Z" fill="#50e85e"/>
      </g>
    </g>
    <g id="Group_108" data-name="Group 108" opacity="0.4">
      <g id="Group_107" data-name="Group 107">
        <path id="Path_506" data-name="Path 506" d="M486.955,231.61v1.07l4.5,2.594V234.2Z" fill="#fff"/>
        <path id="Path_507" data-name="Path 507" d="M486.955,233.566v1.07l4.5,2.594v-1.071Z" fill="#fff"/>
        <path id="Path_508" data-name="Path 508" d="M486.955,235.521v1.07l4.5,2.594v-1.07Z" fill="#fff"/>
        <path id="Path_509" data-name="Path 509" d="M520.891,258.122v-1.07l-27.753-16.008v1.07Z" fill="#fff"/>
        <path id="Path_510" data-name="Path 510" d="M486.955,237.477v1.071l4.5,2.594v-1.07Z" fill="#fff"/>
        <path id="Path_511" data-name="Path 511" d="M486.955,239.432v1.07l4.5,2.594v-1.07Z" fill="#fff"/>
        <path id="Path_512" data-name="Path 512" d="M520.891,260.077v-1.07L493.139,243v1.07Z" fill="#fff"/>
        <path id="Path_513" data-name="Path 513" d="M486.955,245.3v1.071l4.5,2.594v-1.071Z" fill="#fff"/>
        <path id="Path_514" data-name="Path 514" d="M486.955,247.254v1.07l4.5,2.594v-1.07Z" fill="#fff"/>
        <path id="Path_515" data-name="Path 515" d="M486.955,255.076v1.07l4.5,2.594V257.67Z" fill="#fff"/>
        <path id="Path_516" data-name="Path 516" d="M486.955,257.031v1.07l4.5,2.594v-1.071Z" fill="#fff"/>
        <g id="Group_101" data-name="Group 101">
          <path id="Path_517" data-name="Path 517" d="M510.647,270.7l-17.508-10.1v1.071l17.508,10.1Z" fill="#fff"/>
          <path id="Path_518" data-name="Path 518" d="M511.57,271.229v1.07l9.321,5.377v-1.07Z" fill="#fff"/>
        </g>
        <g id="Group_102" data-name="Group 102">
          <path id="Path_519" data-name="Path 519" d="M501.935,263.717l-8.8-5.074v1.071l8.8,5.074Z" fill="#fff"/>
          <path id="Path_520" data-name="Path 520" d="M502.858,264.249v1.07l18.033,10.4v-1.07Z" fill="#fff"/>
        </g>
        <path id="Path_521" data-name="Path 521" d="M518.519,267.416v1.071l2.372,1.368v-1.071Z" fill="#fff"/>
        <path id="Path_522" data-name="Path 522" d="M505.609,258.014l-12.47-7.193v1.07l12.47,7.193Z" fill="#fff"/>
        <path id="Path_523" data-name="Path 523" d="M500.5,239.423l-7.36-4.245v1.07l7.36,4.246Z" fill="#fff"/>
        <g id="Group_103" data-name="Group 103">
          <path id="Path_524" data-name="Path 524" d="M512.564,246.382l-11.142-6.427v1.07l11.142,6.427Z" fill="#fff"/>
        </g>
        <path id="Path_525" data-name="Path 525" d="M506.07,244.592l-7.845-4.525v1.071l7.845,4.525Z" fill="#fff"/>
        <g id="Group_104" data-name="Group 104">
          <path id="Path_526" data-name="Path 526" d="M514.3,249.339l-7.308-4.215v1.071l7.308,4.215Z" fill="#fff"/>
          <path id="Path_527" data-name="Path 527" d="M515.224,249.871v1.07l5.667,3.269v-1.07Z" fill="#fff"/>
        </g>
        <path id="Path_528" data-name="Path 528" d="M494.589,239.924v1.071L500.5,244.4v-1.071Z" fill="#fff"/>
        <path id="Path_529" data-name="Path 529" d="M518.579,253.762l-17.157-9.9v1.07l17.157,9.9Z" fill="#fff"/>
        <path id="Path_530" data-name="Path 530" d="M508.756,253.963,497.544,247.5v1.07l11.212,6.467Z" fill="#fff"/>
        <path id="Path_531" data-name="Path 531" d="M518.579,259.629l-8.9-5.134v1.071l8.9,5.133Z" fill="#fff"/>
        <g id="Group_105" data-name="Group 105">
          <path id="Path_532" data-name="Path 532" d="M517.6,264.928l-11.065-6.382v1.07L517.6,266Z" fill="#fff"/>
        </g>
        <path id="Path_533" data-name="Path 533" d="M511.57,263.408v1.071l6.026,3.476v-1.071Z" fill="#fff"/>
        <path id="Path_534" data-name="Path 534" d="M495.309,254.028l-2.17-1.252v1.07l2.17,1.252Z" fill="#fff"/>
        <g id="Group_106" data-name="Group 106">
          <path id="Path_535" data-name="Path 535" d="M499.374,256.373v1.07l11.273,6.5v-1.07Z" fill="#fff"/>
          <path id="Path_536" data-name="Path 536" d="M498.451,255.84l-2.219-1.28v1.071l2.219,1.28Z" fill="#fff"/>
        </g>
        <path id="Path_537" data-name="Path 537" d="M508.562,263.628l-12.33-7.112v1.071l12.33,7.112Z" fill="#fff"/>
      </g>
    </g>
    <g id="Group_116" data-name="Group 116" opacity="0.4">
      <g id="Group_115" data-name="Group 115">
        <path id="Path_538" data-name="Path 538" d="M528.291,164.594v1.071l4.5,2.594v-1.07Z" fill="#fff"/>
        <path id="Path_539" data-name="Path 539" d="M528.291,166.549v1.071l4.5,2.594v-1.07Z" fill="#fff"/>
        <path id="Path_540" data-name="Path 540" d="M528.291,168.5v1.07l4.5,2.594V171.1Z" fill="#fff"/>
        <path id="Path_541" data-name="Path 541" d="M562.228,191.105v-1.07l-27.753-16.008V175.1Z" fill="#fff"/>
        <path id="Path_542" data-name="Path 542" d="M528.291,170.46v1.07l4.5,2.594v-1.071Z" fill="#fff"/>
        <path id="Path_543" data-name="Path 543" d="M528.291,172.416v1.071l4.5,2.594v-1.071Z" fill="#fff"/>
        <path id="Path_544" data-name="Path 544" d="M562.228,193.061v-1.07l-27.753-16.008v1.071Z" fill="#fff"/>
        <path id="Path_545" data-name="Path 545" d="M528.291,178.282v1.07l4.5,2.594v-1.07Z" fill="#fff"/>
        <path id="Path_546" data-name="Path 546" d="M528.291,180.238v1.071l4.5,2.594v-1.07Z" fill="#fff"/>
        <path id="Path_547" data-name="Path 547" d="M528.291,188.059v1.071l4.5,2.594v-1.07Z" fill="#fff"/>
        <path id="Path_548" data-name="Path 548" d="M528.291,190.015v1.07l4.5,2.594v-1.07Z" fill="#fff"/>
        <g id="Group_109" data-name="Group 109">
          <path id="Path_549" data-name="Path 549" d="M551.983,203.681l-17.508-10.1v1.07l17.508,10.1Z" fill="#fff"/>
          <path id="Path_550" data-name="Path 550" d="M552.906,204.213v1.07l9.321,5.377v-1.07Z" fill="#fff"/>
        </g>
        <g id="Group_110" data-name="Group 110">
          <path id="Path_551" data-name="Path 551" d="M543.271,196.7l-8.8-5.074v1.07l8.8,5.074Z" fill="#fff"/>
          <path id="Path_552" data-name="Path 552" d="M544.194,197.232v1.07l18.034,10.4v-1.07Z" fill="#fff"/>
        </g>
        <path id="Path_553" data-name="Path 553" d="M559.855,200.4v1.07l2.372,1.368v-1.07Z" fill="#fff"/>
        <path id="Path_554" data-name="Path 554" d="M546.945,191l-12.47-7.193v1.07l12.47,7.193Z" fill="#fff"/>
        <path id="Path_555" data-name="Path 555" d="M541.835,172.406l-7.36-4.246v1.07l7.36,4.246Z" fill="#fff"/>
        <g id="Group_111" data-name="Group 111">
          <path id="Path_556" data-name="Path 556" d="M553.9,179.365l-11.142-6.427v1.071l11.142,6.427Z" fill="#fff"/>
        </g>
        <path id="Path_557" data-name="Path 557" d="M547.407,177.575l-7.845-4.525v1.07l7.845,4.525Z" fill="#fff"/>
        <g id="Group_112" data-name="Group 112">
          <path id="Path_558" data-name="Path 558" d="M555.638,182.323l-7.308-4.215v1.07l7.308,4.215Z" fill="#fff"/>
          <path id="Path_559" data-name="Path 559" d="M556.56,182.855v1.07l5.667,3.269v-1.071Z" fill="#fff"/>
        </g>
        <path id="Path_560" data-name="Path 560" d="M535.925,172.908v1.07l5.911,3.409v-1.071Z" fill="#fff"/>
        <path id="Path_561" data-name="Path 561" d="M559.915,186.746l-17.157-9.9v1.071l17.157,9.9Z" fill="#fff"/>
        <path id="Path_562" data-name="Path 562" d="M550.092,186.946l-11.212-6.467v1.07l11.212,6.467Z" fill="#fff"/>
        <path id="Path_563" data-name="Path 563" d="M559.915,192.612l-8.9-5.133v1.07l8.9,5.134Z" fill="#fff"/>
        <g id="Group_113" data-name="Group 113">
          <path id="Path_564" data-name="Path 564" d="M558.933,197.912l-11.064-6.382v1.07l11.064,6.382Z" fill="#fff"/>
        </g>
        <path id="Path_565" data-name="Path 565" d="M552.906,196.391v1.07l6.026,3.476v-1.07Z" fill="#fff"/>
        <path id="Path_566" data-name="Path 566" d="M536.645,187.012l-2.17-1.252v1.07l2.17,1.252Z" fill="#fff"/>
        <g id="Group_114" data-name="Group 114">
          <path id="Path_567" data-name="Path 567" d="M540.71,189.356v1.07l11.273,6.5v-1.071Z" fill="#fff"/>
          <path id="Path_568" data-name="Path 568" d="M539.787,188.824l-2.219-1.28v1.07l2.219,1.28Z" fill="#fff"/>
        </g>
        <path id="Path_569" data-name="Path 569" d="M549.9,196.611l-12.33-7.112v1.07l12.33,7.112Z" fill="#fff"/>
      </g>
    </g>
    <path id="Path_570" data-name="Path 570" d="M447,302.005a6,6,0,0,0-5.516.842c-2.981,1.975-4.989,4.736-3.777,5.753s3.568,2.107,5.1,1.559S451.9,305.163,447,302.005Z" fill="#0f4463"/>
    <g id="Group_118" data-name="Group 118">
      <path id="Path_571" data-name="Path 571" d="M509.908,290.334,486.348,303.68l-15.015-8.686,23.557-13.343Z" fill="#ed5561"/>
      <g id="Group_117" data-name="Group 117">
        <path id="Path_572" data-name="Path 572" d="M490.961,303.36v.526L514.521,290.4v-.385Z" fill="#f0cec9"/>
        <path id="Path_573" data-name="Path 573" d="M514.521,290.013,490.961,303.36l-15.015-8.686L499.5,281.331Z" fill="#fffbf0"/>
        <path id="Path_574" data-name="Path 574" d="M490.961,303.36v.526L475.946,295.2v-.524Z" fill="#f5ddd8"/>
      </g>
      <path id="Path_575" data-name="Path 575" d="M499.342,282.756l9.071,5.232-.4.225-9.071-5.232Z" fill="#dfbab8"/>
      <path id="Path_576" data-name="Path 576" d="M498.4,283.29l9.071,5.232-.4.225L498,283.515Z" fill="#dfbab8"/>
      <path id="Path_577" data-name="Path 577" d="M496.206,284.532l12.491,7.21-.4.225-12.491-7.21Z" fill="#dfbab8"/>
      <path id="Path_578" data-name="Path 578" d="M495.341,285.022l12.491,7.21-.4.225-12.491-7.21Z" fill="#dfbab8"/>
      <path id="Path_579" data-name="Path 579" d="M494.477,285.513l12.491,7.21-.4.225-12.491-7.21Z" fill="#dfbab8"/>
      <path id="Path_580" data-name="Path 580" d="M493.612,286l12.491,7.21-.4.225-12.491-7.21Z" fill="#dfbab8"/>
      <path id="Path_581" data-name="Path 581" d="M492.748,286.495l12.491,7.21-.4.225-12.491-7.21Z" fill="#dfbab8"/>
      <path id="Path_582" data-name="Path 582" d="M491.883,286.985l12.491,7.21-.4.225-12.491-7.21Z" fill="#dfbab8"/>
      <path id="Path_583" data-name="Path 583" d="M491.018,287.476l12.491,7.21-.4.225-12.491-7.21Z" fill="#dfbab8"/>
      <path id="Path_584" data-name="Path 584" d="M490.154,287.967l12.491,7.21-.4.225-12.491-7.21Z" fill="#dfbab8"/>
      <path id="Path_585" data-name="Path 585" d="M489.289,288.457l12.491,7.21-.4.225-12.491-7.21Z" fill="#dfbab8"/>
      <path id="Path_586" data-name="Path 586" d="M488.424,288.948l12.491,7.21-.4.225-12.491-7.21Z" fill="#dfbab8"/>
      <path id="Path_587" data-name="Path 587" d="M487.56,289.439l12.491,7.21-.4.225-12.491-7.21Z" fill="#dfbab8"/>
      <path id="Path_588" data-name="Path 588" d="M486.7,289.93l12.491,7.21-.4.225-12.491-7.21Z" fill="#dfbab8"/>
      <path id="Path_589" data-name="Path 589" d="M485.83,290.42l12.491,7.21-.4.225-12.491-7.21Z" fill="#dfbab8"/>
      <path id="Path_590" data-name="Path 590" d="M484.966,290.911l12.491,7.21-.4.225-12.491-7.21Z" fill="#dfbab8"/>
      <path id="Path_591" data-name="Path 591" d="M484.1,291.4l12.491,7.21-.4.225-12.491-7.21Z" fill="#dfbab8"/>
    </g>
    <g id="Group_119" data-name="Group 119">
      <path id="Path_592" data-name="Path 592" d="M473.923,298.1h-2.2v2.377h2.2a1.488,1.488,0,0,1,1.486,1.486v3.862a1.487,1.487,0,0,1-1.486,1.485h-3.231v2.377h3.231a3.867,3.867,0,0,0,3.863-3.862v-3.862A3.867,3.867,0,0,0,473.923,298.1Z" fill="#a7bcce"/>
      <path id="Path_593" data-name="Path 593" d="M473.1,296.791v13.382c0,2.075-3.092,3.756-6.907,3.756s-6.907-1.681-6.907-3.756V296.791Z" fill="#bbcee1"/>
      <path id="Path_594" data-name="Path 594" d="M459.281,296.791c0,2.074,3.092,3.755,6.907,3.755s6.907-1.681,6.907-3.755-3.092-3.756-6.907-3.756S459.281,294.717,459.281,296.791Z" fill="#fff"/>
      <path id="Path_595" data-name="Path 595" d="M460.656,296.744c0,1.622,2.477,2.937,5.532,2.937s5.532-1.315,5.532-2.937-2.477-2.937-5.532-2.937S460.656,295.122,460.656,296.744Z" fill="#a7bcce"/>
      <path id="Path_596" data-name="Path 596" d="M466.188,295.729c-2.421,0-4.473.827-5.223,1.976.75,1.149,2.8,1.976,5.223,1.976s4.472-.827,5.223-1.976C470.66,296.556,468.608,295.729,466.188,295.729Z" fill="#9d4d36"/>
      <path id="Path_597" data-name="Path 597" d="M468.8,300.267V313.65a7.425,7.425,0,0,0,3.256-1.5V298.766A7.425,7.425,0,0,1,468.8,300.267Z" fill="#a7bcce"/>
    </g>
  </g>
</svg>
